<?xml version="1.0" encoding="utf-8"?>
<svg xmlns="http://www.w3.org/2000/svg" xmlns:xlink="http://www.w3.org/1999/xlink" width="600" height="400" viewBox="0 0 2400 1600">
<defs>
  <clipPath id="clip5500">
    <rect x="0" y="0" width="2400" height="1600"/>
  </clipPath>
</defs>
<path clip-path="url(#clip5500)" d="
M0 1600 L2400 1600 L2400 0 L0 0  Z
  " fill="#ffffff" fill-rule="evenodd" fill-opacity="1"/>
<defs>
  <clipPath id="clip5501">
    <rect x="480" y="0" width="1681" height="1600"/>
  </clipPath>
</defs>
<path clip-path="url(#clip5500)" d="
M139.191 1486.45 L2352.76 1486.45 L2352.76 47.2441 L139.191 47.2441  Z
  " fill="#ffffff" fill-rule="evenodd" fill-opacity="1"/>
<defs>
  <clipPath id="clip5502">
    <rect x="139" y="47" width="2215" height="1440"/>
  </clipPath>
</defs>
<polyline clip-path="url(#clip5502)" style="stroke:#000000; stroke-width:2; stroke-opacity:0.1; fill:none" points="
  339.744,1486.45 339.744,47.2441 
  "/>
<polyline clip-path="url(#clip5502)" style="stroke:#000000; stroke-width:2; stroke-opacity:0.1; fill:none" points="
  733.757,1486.45 733.757,47.2441 
  "/>
<polyline clip-path="url(#clip5502)" style="stroke:#000000; stroke-width:2; stroke-opacity:0.1; fill:none" points="
  1127.77,1486.45 1127.77,47.2441 
  "/>
<polyline clip-path="url(#clip5502)" style="stroke:#000000; stroke-width:2; stroke-opacity:0.1; fill:none" points="
  1521.78,1486.45 1521.78,47.2441 
  "/>
<polyline clip-path="url(#clip5502)" style="stroke:#000000; stroke-width:2; stroke-opacity:0.1; fill:none" points="
  1915.8,1486.45 1915.8,47.2441 
  "/>
<polyline clip-path="url(#clip5502)" style="stroke:#000000; stroke-width:2; stroke-opacity:0.1; fill:none" points="
  2309.81,1486.45 2309.81,47.2441 
  "/>
<polyline clip-path="url(#clip5502)" style="stroke:#000000; stroke-width:2; stroke-opacity:0.1; fill:none" points="
  139.191,1445.72 2352.76,1445.72 
  "/>
<polyline clip-path="url(#clip5502)" style="stroke:#000000; stroke-width:2; stroke-opacity:0.1; fill:none" points="
  139.191,1046.38 2352.76,1046.38 
  "/>
<polyline clip-path="url(#clip5502)" style="stroke:#000000; stroke-width:2; stroke-opacity:0.1; fill:none" points="
  139.191,647.045 2352.76,647.045 
  "/>
<polyline clip-path="url(#clip5502)" style="stroke:#000000; stroke-width:2; stroke-opacity:0.1; fill:none" points="
  139.191,247.71 2352.76,247.71 
  "/>
<polyline clip-path="url(#clip5500)" style="stroke:#000000; stroke-width:4; stroke-opacity:1; fill:none" points="
  139.191,1486.45 2352.76,1486.45 
  "/>
<polyline clip-path="url(#clip5500)" style="stroke:#000000; stroke-width:4; stroke-opacity:1; fill:none" points="
  139.191,1486.45 139.191,47.2441 
  "/>
<polyline clip-path="url(#clip5500)" style="stroke:#000000; stroke-width:4; stroke-opacity:1; fill:none" points="
  339.744,1486.45 339.744,1469.18 
  "/>
<polyline clip-path="url(#clip5500)" style="stroke:#000000; stroke-width:4; stroke-opacity:1; fill:none" points="
  733.757,1486.45 733.757,1469.18 
  "/>
<polyline clip-path="url(#clip5500)" style="stroke:#000000; stroke-width:4; stroke-opacity:1; fill:none" points="
  1127.77,1486.45 1127.77,1469.18 
  "/>
<polyline clip-path="url(#clip5500)" style="stroke:#000000; stroke-width:4; stroke-opacity:1; fill:none" points="
  1521.78,1486.45 1521.78,1469.18 
  "/>
<polyline clip-path="url(#clip5500)" style="stroke:#000000; stroke-width:4; stroke-opacity:1; fill:none" points="
  1915.8,1486.45 1915.8,1469.18 
  "/>
<polyline clip-path="url(#clip5500)" style="stroke:#000000; stroke-width:4; stroke-opacity:1; fill:none" points="
  2309.81,1486.45 2309.81,1469.18 
  "/>
<polyline clip-path="url(#clip5500)" style="stroke:#000000; stroke-width:4; stroke-opacity:1; fill:none" points="
  139.191,1445.72 165.754,1445.72 
  "/>
<polyline clip-path="url(#clip5500)" style="stroke:#000000; stroke-width:4; stroke-opacity:1; fill:none" points="
  139.191,1046.38 165.754,1046.38 
  "/>
<polyline clip-path="url(#clip5500)" style="stroke:#000000; stroke-width:4; stroke-opacity:1; fill:none" points="
  139.191,647.045 165.754,647.045 
  "/>
<polyline clip-path="url(#clip5500)" style="stroke:#000000; stroke-width:4; stroke-opacity:1; fill:none" points="
  139.191,247.71 165.754,247.71 
  "/>
<path clip-path="url(#clip5500)" d="M 0 0 M307.383 1535.98 L323.702 1535.98 L323.702 1539.92 L301.758 1539.92 L301.758 1535.98 Q304.42 1533.23 309.003 1528.6 Q313.609 1523.95 314.79 1522.61 Q317.035 1520.08 317.915 1518.35 Q318.818 1516.59 318.818 1514.9 Q318.818 1512.14 316.873 1510.41 Q314.952 1508.67 311.85 1508.67 Q309.651 1508.67 307.197 1509.43 Q304.767 1510.2 301.989 1511.75 L301.989 1507.03 Q304.813 1505.89 307.267 1505.31 Q309.721 1504.73 311.758 1504.73 Q317.128 1504.73 320.322 1507.42 Q323.517 1510.11 323.517 1514.6 Q323.517 1516.73 322.707 1518.65 Q321.92 1520.54 319.813 1523.14 Q319.234 1523.81 316.133 1527.03 Q313.031 1530.22 307.383 1535.98 Z" fill="#000000" fill-rule="evenodd" fill-opacity="1" /><path clip-path="url(#clip5500)" d="M 0 0 M338.771 1508.44 Q335.16 1508.44 333.332 1512 Q331.526 1515.55 331.526 1522.67 Q331.526 1529.78 333.332 1533.35 Q335.16 1536.89 338.771 1536.89 Q342.406 1536.89 344.211 1533.35 Q346.04 1529.78 346.04 1522.67 Q346.04 1515.55 344.211 1512 Q342.406 1508.44 338.771 1508.44 M338.771 1504.73 Q344.581 1504.73 347.637 1509.34 Q350.716 1513.92 350.716 1522.67 Q350.716 1531.4 347.637 1536.01 Q344.581 1540.59 338.771 1540.59 Q332.961 1540.59 329.882 1536.01 Q326.827 1531.4 326.827 1522.67 Q326.827 1513.92 329.882 1509.34 Q332.961 1504.73 338.771 1504.73 Z" fill="#000000" fill-rule="evenodd" fill-opacity="1" /><path clip-path="url(#clip5500)" d="M 0 0 M365.785 1508.44 Q362.174 1508.44 360.345 1512 Q358.54 1515.55 358.54 1522.67 Q358.54 1529.78 360.345 1533.35 Q362.174 1536.89 365.785 1536.89 Q369.419 1536.89 371.225 1533.35 Q373.054 1529.78 373.054 1522.67 Q373.054 1515.55 371.225 1512 Q369.419 1508.44 365.785 1508.44 M365.785 1504.73 Q371.595 1504.73 374.651 1509.34 Q377.729 1513.92 377.729 1522.67 Q377.729 1531.4 374.651 1536.01 Q371.595 1540.59 365.785 1540.59 Q359.975 1540.59 356.896 1536.01 Q353.841 1531.4 353.841 1522.67 Q353.841 1513.92 356.896 1509.34 Q359.975 1504.73 365.785 1504.73 Z" fill="#000000" fill-rule="evenodd" fill-opacity="1" /><path clip-path="url(#clip5500)" d="M 0 0 M710.99 1521.29 Q714.347 1522 716.222 1524.27 Q718.12 1526.54 718.12 1529.87 Q718.12 1534.99 714.602 1537.79 Q711.083 1540.59 704.602 1540.59 Q702.426 1540.59 700.111 1540.15 Q697.819 1539.73 695.366 1538.88 L695.366 1534.36 Q697.31 1535.5 699.625 1536.08 Q701.94 1536.66 704.463 1536.66 Q708.861 1536.66 711.152 1534.92 Q713.467 1533.18 713.467 1529.87 Q713.467 1526.82 711.315 1525.11 Q709.185 1523.37 705.365 1523.37 L701.338 1523.37 L701.338 1519.53 L705.551 1519.53 Q709 1519.53 710.828 1518.16 Q712.657 1516.77 712.657 1514.18 Q712.657 1511.52 710.759 1510.11 Q708.884 1508.67 705.365 1508.67 Q703.444 1508.67 701.245 1509.09 Q699.046 1509.5 696.407 1510.38 L696.407 1506.22 Q699.069 1505.48 701.384 1505.11 Q703.722 1504.73 705.782 1504.73 Q711.106 1504.73 714.208 1507.17 Q717.31 1509.57 717.31 1513.69 Q717.31 1516.56 715.666 1518.55 Q714.023 1520.52 710.99 1521.29 Z" fill="#000000" fill-rule="evenodd" fill-opacity="1" /><path clip-path="url(#clip5500)" d="M 0 0 M733.189 1508.44 Q729.578 1508.44 727.75 1512 Q725.944 1515.55 725.944 1522.67 Q725.944 1529.78 727.75 1533.35 Q729.578 1536.89 733.189 1536.89 Q736.824 1536.89 738.629 1533.35 Q740.458 1529.78 740.458 1522.67 Q740.458 1515.55 738.629 1512 Q736.824 1508.44 733.189 1508.44 M733.189 1504.73 Q739 1504.73 742.055 1509.34 Q745.134 1513.92 745.134 1522.67 Q745.134 1531.4 742.055 1536.01 Q739 1540.59 733.189 1540.59 Q727.379 1540.59 724.301 1536.01 Q721.245 1531.4 721.245 1522.67 Q721.245 1513.92 724.301 1509.34 Q727.379 1504.73 733.189 1504.73 Z" fill="#000000" fill-rule="evenodd" fill-opacity="1" /><path clip-path="url(#clip5500)" d="M 0 0 M760.203 1508.44 Q756.592 1508.44 754.763 1512 Q752.958 1515.55 752.958 1522.67 Q752.958 1529.78 754.763 1533.35 Q756.592 1536.89 760.203 1536.89 Q763.837 1536.89 765.643 1533.35 Q767.472 1529.78 767.472 1522.67 Q767.472 1515.55 765.643 1512 Q763.837 1508.44 760.203 1508.44 M760.203 1504.73 Q766.013 1504.73 769.069 1509.34 Q772.148 1513.92 772.148 1522.67 Q772.148 1531.4 769.069 1536.01 Q766.013 1540.59 760.203 1540.59 Q754.393 1540.59 751.314 1536.01 Q748.259 1531.4 748.259 1522.67 Q748.259 1513.92 751.314 1509.34 Q754.393 1504.73 760.203 1504.73 Z" fill="#000000" fill-rule="evenodd" fill-opacity="1" /><path clip-path="url(#clip5500)" d="M 0 0 M1103.77 1509.43 L1091.96 1527.88 L1103.77 1527.88 L1103.77 1509.43 M1102.54 1505.36 L1108.42 1505.36 L1108.42 1527.88 L1113.35 1527.88 L1113.35 1531.77 L1108.42 1531.77 L1108.42 1539.92 L1103.77 1539.92 L1103.77 1531.77 L1088.16 1531.77 L1088.16 1527.26 L1102.54 1505.36 Z" fill="#000000" fill-rule="evenodd" fill-opacity="1" /><path clip-path="url(#clip5500)" d="M 0 0 M1128.42 1508.44 Q1124.81 1508.44 1122.98 1512 Q1121.17 1515.55 1121.17 1522.67 Q1121.17 1529.78 1122.98 1533.35 Q1124.81 1536.89 1128.42 1536.89 Q1132.05 1536.89 1133.86 1533.35 Q1135.69 1529.78 1135.69 1522.67 Q1135.69 1515.55 1133.86 1512 Q1132.05 1508.44 1128.42 1508.44 M1128.42 1504.73 Q1134.23 1504.73 1137.28 1509.34 Q1140.36 1513.92 1140.36 1522.67 Q1140.36 1531.4 1137.28 1536.01 Q1134.23 1540.59 1128.42 1540.59 Q1122.61 1540.59 1119.53 1536.01 Q1116.47 1531.4 1116.47 1522.67 Q1116.47 1513.92 1119.53 1509.34 Q1122.61 1504.73 1128.42 1504.73 Z" fill="#000000" fill-rule="evenodd" fill-opacity="1" /><path clip-path="url(#clip5500)" d="M 0 0 M1155.43 1508.44 Q1151.82 1508.44 1149.99 1512 Q1148.19 1515.55 1148.19 1522.67 Q1148.19 1529.78 1149.99 1533.35 Q1151.82 1536.89 1155.43 1536.89 Q1159.07 1536.89 1160.87 1533.35 Q1162.7 1529.78 1162.7 1522.67 Q1162.7 1515.55 1160.87 1512 Q1159.07 1508.44 1155.43 1508.44 M1155.43 1504.73 Q1161.24 1504.73 1164.3 1509.34 Q1167.38 1513.92 1167.38 1522.67 Q1167.38 1531.4 1164.3 1536.01 Q1161.24 1540.59 1155.43 1540.59 Q1149.62 1540.59 1146.54 1536.01 Q1143.49 1531.4 1143.49 1522.67 Q1143.49 1513.92 1146.54 1509.34 Q1149.62 1504.73 1155.43 1504.73 Z" fill="#000000" fill-rule="evenodd" fill-opacity="1" /><path clip-path="url(#clip5500)" d="M 0 0 M1485.05 1505.36 L1503.4 1505.36 L1503.4 1509.3 L1489.33 1509.3 L1489.33 1517.77 Q1490.35 1517.42 1491.37 1517.26 Q1492.38 1517.07 1493.4 1517.07 Q1499.19 1517.07 1502.57 1520.24 Q1505.95 1523.42 1505.95 1528.83 Q1505.95 1534.41 1502.48 1537.51 Q1499 1540.59 1492.69 1540.59 Q1490.51 1540.59 1488.24 1540.22 Q1486 1539.85 1483.59 1539.11 L1483.59 1534.41 Q1485.67 1535.54 1487.89 1536.1 Q1490.12 1536.66 1492.59 1536.66 Q1496.6 1536.66 1498.94 1534.55 Q1501.27 1532.44 1501.27 1528.83 Q1501.27 1525.22 1498.94 1523.11 Q1496.6 1521.01 1492.59 1521.01 Q1490.72 1521.01 1488.84 1521.42 Q1486.99 1521.84 1485.05 1522.72 L1485.05 1505.36 Z" fill="#000000" fill-rule="evenodd" fill-opacity="1" /><path clip-path="url(#clip5500)" d="M 0 0 M1521.02 1508.44 Q1517.41 1508.44 1515.58 1512 Q1513.77 1515.55 1513.77 1522.67 Q1513.77 1529.78 1515.58 1533.35 Q1517.41 1536.89 1521.02 1536.89 Q1524.65 1536.89 1526.46 1533.35 Q1528.29 1529.78 1528.29 1522.67 Q1528.29 1515.55 1526.46 1512 Q1524.65 1508.44 1521.02 1508.44 M1521.02 1504.73 Q1526.83 1504.73 1529.88 1509.34 Q1532.96 1513.92 1532.96 1522.67 Q1532.96 1531.4 1529.88 1536.01 Q1526.83 1540.59 1521.02 1540.59 Q1515.21 1540.59 1512.13 1536.01 Q1509.07 1531.4 1509.07 1522.67 Q1509.07 1513.92 1512.13 1509.34 Q1515.21 1504.73 1521.02 1504.73 Z" fill="#000000" fill-rule="evenodd" fill-opacity="1" /><path clip-path="url(#clip5500)" d="M 0 0 M1548.03 1508.44 Q1544.42 1508.44 1542.59 1512 Q1540.79 1515.55 1540.79 1522.67 Q1540.79 1529.78 1542.59 1533.35 Q1544.42 1536.89 1548.03 1536.89 Q1551.67 1536.89 1553.47 1533.35 Q1555.3 1529.78 1555.3 1522.67 Q1555.3 1515.55 1553.47 1512 Q1551.67 1508.44 1548.03 1508.44 M1548.03 1504.73 Q1553.84 1504.73 1556.9 1509.34 Q1559.98 1513.92 1559.98 1522.67 Q1559.98 1531.4 1556.9 1536.01 Q1553.84 1540.59 1548.03 1540.59 Q1542.22 1540.59 1539.14 1536.01 Q1536.09 1531.4 1536.09 1522.67 Q1536.09 1513.92 1539.14 1509.34 Q1542.22 1504.73 1548.03 1504.73 Z" fill="#000000" fill-rule="evenodd" fill-opacity="1" /><path clip-path="url(#clip5500)" d="M 0 0 M1889.19 1520.78 Q1886.04 1520.78 1884.19 1522.93 Q1882.36 1525.08 1882.36 1528.83 Q1882.36 1532.56 1884.19 1534.73 Q1886.04 1536.89 1889.19 1536.89 Q1892.33 1536.89 1894.16 1534.73 Q1896.02 1532.56 1896.02 1528.83 Q1896.02 1525.08 1894.16 1522.93 Q1892.33 1520.78 1889.19 1520.78 M1898.47 1506.12 L1898.47 1510.38 Q1896.71 1509.55 1894.9 1509.11 Q1893.12 1508.67 1891.36 1508.67 Q1886.73 1508.67 1884.28 1511.8 Q1881.85 1514.92 1881.5 1521.24 Q1882.87 1519.23 1884.93 1518.16 Q1886.99 1517.07 1889.46 1517.07 Q1894.67 1517.07 1897.68 1520.24 Q1900.71 1523.39 1900.71 1528.83 Q1900.71 1534.16 1897.57 1537.37 Q1894.42 1540.59 1889.19 1540.59 Q1883.19 1540.59 1880.02 1536.01 Q1876.85 1531.4 1876.85 1522.67 Q1876.85 1514.48 1880.74 1509.62 Q1884.63 1504.73 1891.18 1504.73 Q1892.94 1504.73 1894.72 1505.08 Q1896.52 1505.43 1898.47 1506.12 Z" fill="#000000" fill-rule="evenodd" fill-opacity="1" /><path clip-path="url(#clip5500)" d="M 0 0 M1915.78 1508.44 Q1912.17 1508.44 1910.34 1512 Q1908.54 1515.55 1908.54 1522.67 Q1908.54 1529.78 1910.34 1533.35 Q1912.17 1536.89 1915.78 1536.89 Q1919.42 1536.89 1921.22 1533.35 Q1923.05 1529.78 1923.05 1522.67 Q1923.05 1515.55 1921.22 1512 Q1919.42 1508.44 1915.78 1508.44 M1915.78 1504.73 Q1921.59 1504.73 1924.65 1509.34 Q1927.73 1513.92 1927.73 1522.67 Q1927.73 1531.4 1924.65 1536.01 Q1921.59 1540.59 1915.78 1540.59 Q1909.97 1540.59 1906.9 1536.01 Q1903.84 1531.4 1903.84 1522.67 Q1903.84 1513.92 1906.9 1509.34 Q1909.97 1504.73 1915.78 1504.73 Z" fill="#000000" fill-rule="evenodd" fill-opacity="1" /><path clip-path="url(#clip5500)" d="M 0 0 M1942.8 1508.44 Q1939.19 1508.44 1937.36 1512 Q1935.55 1515.55 1935.55 1522.67 Q1935.55 1529.78 1937.36 1533.35 Q1939.19 1536.89 1942.8 1536.89 Q1946.43 1536.89 1948.24 1533.35 Q1950.07 1529.78 1950.07 1522.67 Q1950.07 1515.55 1948.24 1512 Q1946.43 1508.44 1942.8 1508.44 M1942.8 1504.73 Q1948.61 1504.73 1951.66 1509.34 Q1954.74 1513.92 1954.74 1522.67 Q1954.74 1531.4 1951.66 1536.01 Q1948.61 1540.59 1942.8 1540.59 Q1936.99 1540.59 1933.91 1536.01 Q1930.85 1531.4 1930.85 1522.67 Q1930.85 1513.92 1933.91 1509.34 Q1936.99 1504.73 1942.8 1504.73 Z" fill="#000000" fill-rule="evenodd" fill-opacity="1" /><path clip-path="url(#clip5500)" d="M 0 0 M2271.68 1505.36 L2293.91 1505.36 L2293.91 1507.35 L2281.36 1539.92 L2276.48 1539.92 L2288.28 1509.3 L2271.68 1509.3 L2271.68 1505.36 Z" fill="#000000" fill-rule="evenodd" fill-opacity="1" /><path clip-path="url(#clip5500)" d="M 0 0 M2308.98 1508.44 Q2305.36 1508.44 2303.54 1512 Q2301.73 1515.55 2301.73 1522.67 Q2301.73 1529.78 2303.54 1533.35 Q2305.36 1536.89 2308.98 1536.89 Q2312.61 1536.89 2314.41 1533.35 Q2316.24 1529.78 2316.24 1522.67 Q2316.24 1515.55 2314.41 1512 Q2312.61 1508.44 2308.98 1508.44 M2308.98 1504.73 Q2314.79 1504.73 2317.84 1509.34 Q2320.92 1513.92 2320.92 1522.67 Q2320.92 1531.4 2317.84 1536.01 Q2314.79 1540.59 2308.98 1540.59 Q2303.17 1540.59 2300.09 1536.01 Q2297.03 1531.4 2297.03 1522.67 Q2297.03 1513.92 2300.09 1509.34 Q2303.17 1504.73 2308.98 1504.73 Z" fill="#000000" fill-rule="evenodd" fill-opacity="1" /><path clip-path="url(#clip5500)" d="M 0 0 M2335.99 1508.44 Q2332.38 1508.44 2330.55 1512 Q2328.74 1515.55 2328.74 1522.67 Q2328.74 1529.78 2330.55 1533.35 Q2332.38 1536.89 2335.99 1536.89 Q2339.62 1536.89 2341.43 1533.35 Q2343.26 1529.78 2343.26 1522.67 Q2343.26 1515.55 2341.43 1512 Q2339.62 1508.44 2335.99 1508.44 M2335.99 1504.73 Q2341.8 1504.73 2344.85 1509.34 Q2347.93 1513.92 2347.93 1522.67 Q2347.93 1531.4 2344.85 1536.01 Q2341.8 1540.59 2335.99 1540.59 Q2330.18 1540.59 2327.1 1536.01 Q2324.04 1531.4 2324.04 1522.67 Q2324.04 1513.92 2327.1 1509.34 Q2330.18 1504.73 2335.99 1504.73 Z" fill="#000000" fill-rule="evenodd" fill-opacity="1" /><path clip-path="url(#clip5500)" d="M 0 0 M103.247 1431.51 Q99.6354 1431.51 97.8068 1435.08 Q96.0012 1438.62 96.0012 1445.75 Q96.0012 1452.86 97.8068 1456.42 Q99.6354 1459.96 103.247 1459.96 Q106.881 1459.96 108.686 1456.42 Q110.515 1452.86 110.515 1445.75 Q110.515 1438.62 108.686 1435.08 Q106.881 1431.51 103.247 1431.51 M103.247 1427.81 Q109.057 1427.81 112.112 1432.42 Q115.191 1437 115.191 1445.75 Q115.191 1454.48 112.112 1459.08 Q109.057 1463.67 103.247 1463.67 Q97.4364 1463.67 94.3577 1459.08 Q91.3022 1454.48 91.3022 1445.75 Q91.3022 1437 94.3577 1432.42 Q97.4364 1427.81 103.247 1427.81 Z" fill="#000000" fill-rule="evenodd" fill-opacity="1" /><path clip-path="url(#clip5500)" d="M 0 0 M71.8578 1059.73 L88.1772 1059.73 L88.1772 1063.66 L66.2328 1063.66 L66.2328 1059.73 Q68.8949 1056.97 73.4782 1052.34 Q78.0846 1047.69 79.2652 1046.35 Q81.5105 1043.82 82.3902 1042.09 Q83.2929 1040.33 83.2929 1038.64 Q83.2929 1035.88 81.3485 1034.15 Q79.4272 1032.41 76.3254 1032.41 Q74.1263 1032.41 71.6726 1033.17 Q69.2421 1033.94 66.4643 1035.49 L66.4643 1030.77 Q69.2884 1029.63 71.7421 1029.05 Q74.1958 1028.48 76.2328 1028.48 Q81.6031 1028.48 84.7976 1031.16 Q87.992 1033.85 87.992 1038.34 Q87.992 1040.47 87.1818 1042.39 Q86.3948 1044.29 84.2883 1046.88 Q83.7096 1047.55 80.6078 1050.77 Q77.5059 1053.96 71.8578 1059.73 Z" fill="#000000" fill-rule="evenodd" fill-opacity="1" /><path clip-path="url(#clip5500)" d="M 0 0 M103.247 1032.18 Q99.6354 1032.18 97.8068 1035.74 Q96.0012 1039.29 96.0012 1046.42 Q96.0012 1053.52 97.8068 1057.09 Q99.6354 1060.63 103.247 1060.63 Q106.881 1060.63 108.686 1057.09 Q110.515 1053.52 110.515 1046.42 Q110.515 1039.29 108.686 1035.74 Q106.881 1032.18 103.247 1032.18 M103.247 1028.48 Q109.057 1028.48 112.112 1033.08 Q115.191 1037.67 115.191 1046.42 Q115.191 1055.14 112.112 1059.75 Q109.057 1064.33 103.247 1064.33 Q97.4364 1064.33 94.3577 1059.75 Q91.3022 1055.14 91.3022 1046.42 Q91.3022 1037.67 94.3577 1033.08 Q97.4364 1028.48 103.247 1028.48 Z" fill="#000000" fill-rule="evenodd" fill-opacity="1" /><path clip-path="url(#clip5500)" d="M 0 0 M78.5939 633.839 L66.7884 652.288 L78.5939 652.288 L78.5939 633.839 M77.367 629.765 L83.2466 629.765 L83.2466 652.288 L88.1772 652.288 L88.1772 656.177 L83.2466 656.177 L83.2466 664.325 L78.5939 664.325 L78.5939 656.177 L62.9921 656.177 L62.9921 651.663 L77.367 629.765 Z" fill="#000000" fill-rule="evenodd" fill-opacity="1" /><path clip-path="url(#clip5500)" d="M 0 0 M103.247 632.844 Q99.6354 632.844 97.8068 636.409 Q96.0012 639.951 96.0012 647.08 Q96.0012 654.187 97.8068 657.751 Q99.6354 661.293 103.247 661.293 Q106.881 661.293 108.686 657.751 Q110.515 654.187 110.515 647.08 Q110.515 639.951 108.686 636.409 Q106.881 632.844 103.247 632.844 M103.247 629.14 Q109.057 629.14 112.112 633.747 Q115.191 638.33 115.191 647.08 Q115.191 655.807 112.112 660.413 Q109.057 664.997 103.247 664.997 Q97.4364 664.997 94.3577 660.413 Q91.3022 655.807 91.3022 647.08 Q91.3022 638.33 94.3577 633.747 Q97.4364 629.14 103.247 629.14 Z" fill="#000000" fill-rule="evenodd" fill-opacity="1" /><path clip-path="url(#clip5500)" d="M 0 0 M76.6495 245.847 Q73.5013 245.847 71.6495 248 Q69.8208 250.152 69.8208 253.902 Q69.8208 257.629 71.6495 259.805 Q73.5013 261.958 76.6495 261.958 Q79.7976 261.958 81.6263 259.805 Q83.4781 257.629 83.4781 253.902 Q83.4781 250.152 81.6263 248 Q79.7976 245.847 76.6495 245.847 M85.9318 231.194 L85.9318 235.453 Q84.1726 234.62 82.367 234.18 Q80.5846 233.74 78.8254 233.74 Q74.1958 233.74 71.7421 236.865 Q69.3115 239.99 68.9643 246.31 Q70.33 244.296 72.3902 243.231 Q74.4504 242.143 76.9272 242.143 Q82.1355 242.143 85.1448 245.315 Q88.1772 248.463 88.1772 253.902 Q88.1772 259.226 85.029 262.444 Q81.8809 265.662 76.6495 265.662 Q70.6541 265.662 67.4828 261.078 Q64.3116 256.472 64.3116 247.745 Q64.3116 239.551 68.2004 234.69 Q72.0893 229.805 78.6402 229.805 Q80.3994 229.805 82.1818 230.153 Q83.9874 230.5 85.9318 231.194 Z" fill="#000000" fill-rule="evenodd" fill-opacity="1" /><path clip-path="url(#clip5500)" d="M 0 0 M103.247 233.509 Q99.6354 233.509 97.8068 237.074 Q96.0012 240.615 96.0012 247.745 Q96.0012 254.851 97.8068 258.416 Q99.6354 261.958 103.247 261.958 Q106.881 261.958 108.686 258.416 Q110.515 254.851 110.515 247.745 Q110.515 240.615 108.686 237.074 Q106.881 233.509 103.247 233.509 M103.247 229.805 Q109.057 229.805 112.112 234.412 Q115.191 238.995 115.191 247.745 Q115.191 256.472 112.112 261.078 Q109.057 265.662 103.247 265.662 Q97.4364 265.662 94.3577 261.078 Q91.3022 256.472 91.3022 247.745 Q91.3022 238.995 94.3577 234.412 Q97.4364 229.805 103.247 229.805 Z" fill="#000000" fill-rule="evenodd" fill-opacity="1" /><path clip-path="url(#clip5502)" d="
M260.941 1385.82 L260.941 1445.72 L339.744 1445.72 L339.744 1385.82 L260.941 1385.82 L260.941 1385.82  Z
  " fill="#009af9" fill-rule="evenodd" fill-opacity="1"/>
<polyline clip-path="url(#clip5502)" style="stroke:#000000; stroke-width:4; stroke-opacity:1; fill:none" points="
  260.941,1385.82 260.941,1445.72 339.744,1445.72 339.744,1385.82 260.941,1385.82 
  "/>
<path clip-path="url(#clip5502)" d="
M339.744 87.9763 L339.744 1445.72 L418.546 1445.72 L418.546 87.9763 L339.744 87.9763 L339.744 87.9763  Z
  " fill="#009af9" fill-rule="evenodd" fill-opacity="1"/>
<polyline clip-path="url(#clip5502)" style="stroke:#000000; stroke-width:4; stroke-opacity:1; fill:none" points="
  339.744,87.9763 339.744,1445.72 418.546,1445.72 418.546,87.9763 339.744,87.9763 
  "/>
<path clip-path="url(#clip5502)" d="
M418.546 167.843 L418.546 1445.72 L497.349 1445.72 L497.349 167.843 L418.546 167.843 L418.546 167.843  Z
  " fill="#009af9" fill-rule="evenodd" fill-opacity="1"/>
<polyline clip-path="url(#clip5502)" style="stroke:#000000; stroke-width:4; stroke-opacity:1; fill:none" points="
  418.546,167.843 418.546,1445.72 497.349,1445.72 497.349,167.843 418.546,167.843 
  "/>
<path clip-path="url(#clip5502)" d="
M497.349 467.345 L497.349 1445.72 L576.151 1445.72 L576.151 467.345 L497.349 467.345 L497.349 467.345  Z
  " fill="#009af9" fill-rule="evenodd" fill-opacity="1"/>
<polyline clip-path="url(#clip5502)" style="stroke:#000000; stroke-width:4; stroke-opacity:1; fill:none" points="
  497.349,467.345 497.349,1445.72 576.151,1445.72 576.151,467.345 497.349,467.345 
  "/>
<path clip-path="url(#clip5502)" d="
M576.151 167.843 L576.151 1445.72 L654.954 1445.72 L654.954 167.843 L576.151 167.843 L576.151 167.843  Z
  " fill="#009af9" fill-rule="evenodd" fill-opacity="1"/>
<polyline clip-path="url(#clip5502)" style="stroke:#000000; stroke-width:4; stroke-opacity:1; fill:none" points="
  576.151,167.843 576.151,1445.72 654.954,1445.72 654.954,167.843 576.151,167.843 
  "/>
<path clip-path="url(#clip5502)" d="
M654.954 607.112 L654.954 1445.72 L733.757 1445.72 L733.757 607.112 L654.954 607.112 L654.954 607.112  Z
  " fill="#009af9" fill-rule="evenodd" fill-opacity="1"/>
<polyline clip-path="url(#clip5502)" style="stroke:#000000; stroke-width:4; stroke-opacity:1; fill:none" points="
  654.954,607.112 654.954,1445.72 733.757,1445.72 733.757,607.112 654.954,607.112 
  "/>
<path clip-path="url(#clip5502)" d="
M733.757 627.079 L733.757 1445.72 L812.559 1445.72 L812.559 627.079 L733.757 627.079 L733.757 627.079  Z
  " fill="#009af9" fill-rule="evenodd" fill-opacity="1"/>
<polyline clip-path="url(#clip5502)" style="stroke:#000000; stroke-width:4; stroke-opacity:1; fill:none" points="
  733.757,627.079 733.757,1445.72 812.559,1445.72 812.559,627.079 733.757,627.079 
  "/>
<path clip-path="url(#clip5502)" d="
M812.559 527.245 L812.559 1445.72 L891.362 1445.72 L891.362 527.245 L812.559 527.245 L812.559 527.245  Z
  " fill="#009af9" fill-rule="evenodd" fill-opacity="1"/>
<polyline clip-path="url(#clip5502)" style="stroke:#000000; stroke-width:4; stroke-opacity:1; fill:none" points="
  812.559,527.245 812.559,1445.72 891.362,1445.72 891.362,527.245 812.559,527.245 
  "/>
<path clip-path="url(#clip5502)" d="
M891.362 487.311 L891.362 1445.72 L970.164 1445.72 L970.164 487.311 L891.362 487.311 L891.362 487.311  Z
  " fill="#009af9" fill-rule="evenodd" fill-opacity="1"/>
<polyline clip-path="url(#clip5502)" style="stroke:#000000; stroke-width:4; stroke-opacity:1; fill:none" points="
  891.362,487.311 891.362,1445.72 970.164,1445.72 970.164,487.311 891.362,487.311 
  "/>
<path clip-path="url(#clip5502)" d="
M970.164 447.378 L970.164 1445.72 L1048.97 1445.72 L1048.97 447.378 L970.164 447.378 L970.164 447.378  Z
  " fill="#009af9" fill-rule="evenodd" fill-opacity="1"/>
<polyline clip-path="url(#clip5502)" style="stroke:#000000; stroke-width:4; stroke-opacity:1; fill:none" points="
  970.164,447.378 970.164,1445.72 1048.97,1445.72 1048.97,447.378 970.164,447.378 
  "/>
<path clip-path="url(#clip5502)" d="
M1048.97 786.813 L1048.97 1445.72 L1127.77 1445.72 L1127.77 786.813 L1048.97 786.813 L1048.97 786.813  Z
  " fill="#009af9" fill-rule="evenodd" fill-opacity="1"/>
<polyline clip-path="url(#clip5502)" style="stroke:#000000; stroke-width:4; stroke-opacity:1; fill:none" points="
  1048.97,786.813 1048.97,1445.72 1127.77,1445.72 1127.77,786.813 1048.97,786.813 
  "/>
<path clip-path="url(#clip5502)" d="
M1127.77 926.58 L1127.77 1445.72 L1206.57 1445.72 L1206.57 926.58 L1127.77 926.58 L1127.77 926.58  Z
  " fill="#009af9" fill-rule="evenodd" fill-opacity="1"/>
<polyline clip-path="url(#clip5502)" style="stroke:#000000; stroke-width:4; stroke-opacity:1; fill:none" points="
  1127.77,926.58 1127.77,1445.72 1206.57,1445.72 1206.57,926.58 1127.77,926.58 
  "/>
<path clip-path="url(#clip5502)" d="
M1206.57 946.547 L1206.57 1445.72 L1285.37 1445.72 L1285.37 946.547 L1206.57 946.547 L1206.57 946.547  Z
  " fill="#009af9" fill-rule="evenodd" fill-opacity="1"/>
<polyline clip-path="url(#clip5502)" style="stroke:#000000; stroke-width:4; stroke-opacity:1; fill:none" points="
  1206.57,946.547 1206.57,1445.72 1285.37,1445.72 1285.37,946.547 1206.57,946.547 
  "/>
<path clip-path="url(#clip5502)" d="
M1285.37 866.68 L1285.37 1445.72 L1364.18 1445.72 L1364.18 866.68 L1285.37 866.68 L1285.37 866.68  Z
  " fill="#009af9" fill-rule="evenodd" fill-opacity="1"/>
<polyline clip-path="url(#clip5502)" style="stroke:#000000; stroke-width:4; stroke-opacity:1; fill:none" points="
  1285.37,866.68 1285.37,1445.72 1364.18,1445.72 1364.18,866.68 1285.37,866.68 
  "/>
<path clip-path="url(#clip5502)" d="
M1364.18 966.514 L1364.18 1445.72 L1442.98 1445.72 L1442.98 966.514 L1364.18 966.514 L1364.18 966.514  Z
  " fill="#009af9" fill-rule="evenodd" fill-opacity="1"/>
<polyline clip-path="url(#clip5502)" style="stroke:#000000; stroke-width:4; stroke-opacity:1; fill:none" points="
  1364.18,966.514 1364.18,1445.72 1442.98,1445.72 1442.98,966.514 1364.18,966.514 
  "/>
<path clip-path="url(#clip5502)" d="
M1442.98 1226.08 L1442.98 1445.72 L1521.78 1445.72 L1521.78 1226.08 L1442.98 1226.08 L1442.98 1226.08  Z
  " fill="#009af9" fill-rule="evenodd" fill-opacity="1"/>
<polyline clip-path="url(#clip5502)" style="stroke:#000000; stroke-width:4; stroke-opacity:1; fill:none" points="
  1442.98,1226.08 1442.98,1445.72 1521.78,1445.72 1521.78,1226.08 1442.98,1226.08 
  "/>
<path clip-path="url(#clip5502)" d="
M1521.78 1325.92 L1521.78 1445.72 L1600.59 1445.72 L1600.59 1325.92 L1521.78 1325.92 L1521.78 1325.92  Z
  " fill="#009af9" fill-rule="evenodd" fill-opacity="1"/>
<polyline clip-path="url(#clip5502)" style="stroke:#000000; stroke-width:4; stroke-opacity:1; fill:none" points="
  1521.78,1325.92 1521.78,1445.72 1600.59,1445.72 1600.59,1325.92 1521.78,1325.92 
  "/>
<path clip-path="url(#clip5502)" d="
M1600.59 1285.98 L1600.59 1445.72 L1679.39 1445.72 L1679.39 1285.98 L1600.59 1285.98 L1600.59 1285.98  Z
  " fill="#009af9" fill-rule="evenodd" fill-opacity="1"/>
<polyline clip-path="url(#clip5502)" style="stroke:#000000; stroke-width:4; stroke-opacity:1; fill:none" points="
  1600.59,1285.98 1600.59,1445.72 1679.39,1445.72 1679.39,1285.98 1600.59,1285.98 
  "/>
<path clip-path="url(#clip5502)" d="
M1679.39 1305.95 L1679.39 1445.72 L1758.19 1445.72 L1758.19 1305.95 L1679.39 1305.95 L1679.39 1305.95  Z
  " fill="#009af9" fill-rule="evenodd" fill-opacity="1"/>
<polyline clip-path="url(#clip5502)" style="stroke:#000000; stroke-width:4; stroke-opacity:1; fill:none" points="
  1679.39,1305.95 1679.39,1445.72 1758.19,1445.72 1758.19,1305.95 1679.39,1305.95 
  "/>
<path clip-path="url(#clip5502)" d="
M1758.19 1345.88 L1758.19 1445.72 L1836.99 1445.72 L1836.99 1345.88 L1758.19 1345.88 L1758.19 1345.88  Z
  " fill="#009af9" fill-rule="evenodd" fill-opacity="1"/>
<polyline clip-path="url(#clip5502)" style="stroke:#000000; stroke-width:4; stroke-opacity:1; fill:none" points="
  1758.19,1345.88 1758.19,1445.72 1836.99,1445.72 1836.99,1345.88 1758.19,1345.88 
  "/>
<path clip-path="url(#clip5502)" d="
M1836.99 1345.88 L1836.99 1445.72 L1915.8 1445.72 L1915.8 1345.88 L1836.99 1345.88 L1836.99 1345.88  Z
  " fill="#009af9" fill-rule="evenodd" fill-opacity="1"/>
<polyline clip-path="url(#clip5502)" style="stroke:#000000; stroke-width:4; stroke-opacity:1; fill:none" points="
  1836.99,1345.88 1836.99,1445.72 1915.8,1445.72 1915.8,1345.88 1836.99,1345.88 
  "/>
<path clip-path="url(#clip5502)" d="
M1915.8 1345.88 L1915.8 1445.72 L1994.6 1445.72 L1994.6 1345.88 L1915.8 1345.88 L1915.8 1345.88  Z
  " fill="#009af9" fill-rule="evenodd" fill-opacity="1"/>
<polyline clip-path="url(#clip5502)" style="stroke:#000000; stroke-width:4; stroke-opacity:1; fill:none" points="
  1915.8,1345.88 1915.8,1445.72 1994.6,1445.72 1994.6,1345.88 1915.8,1345.88 
  "/>
<path clip-path="url(#clip5502)" d="
M1994.6 1285.98 L1994.6 1445.72 L2073.4 1445.72 L2073.4 1285.98 L1994.6 1285.98 L1994.6 1285.98  Z
  " fill="#009af9" fill-rule="evenodd" fill-opacity="1"/>
<polyline clip-path="url(#clip5502)" style="stroke:#000000; stroke-width:4; stroke-opacity:1; fill:none" points="
  1994.6,1285.98 1994.6,1445.72 2073.4,1445.72 2073.4,1285.98 1994.6,1285.98 
  "/>
<path clip-path="url(#clip5502)" d="
M2073.4 1325.92 L2073.4 1445.72 L2152.2 1445.72 L2152.2 1325.92 L2073.4 1325.92 L2073.4 1325.92  Z
  " fill="#009af9" fill-rule="evenodd" fill-opacity="1"/>
<polyline clip-path="url(#clip5502)" style="stroke:#000000; stroke-width:4; stroke-opacity:1; fill:none" points="
  2073.4,1325.92 2073.4,1445.72 2152.2,1445.72 2152.2,1325.92 2073.4,1325.92 
  "/>
<path clip-path="url(#clip5502)" d="
M2152.2 1385.82 L2152.2 1445.72 L2231.01 1445.72 L2231.01 1385.82 L2152.2 1385.82 L2152.2 1385.82  Z
  " fill="#009af9" fill-rule="evenodd" fill-opacity="1"/>
<polyline clip-path="url(#clip5502)" style="stroke:#000000; stroke-width:4; stroke-opacity:1; fill:none" points="
  2152.2,1385.82 2152.2,1445.72 2231.01,1445.72 2231.01,1385.82 2152.2,1385.82 
  "/>
<path clip-path="url(#clip5500)" d="
M1857.49 251.724 L2280.76 251.724 L2280.76 130.764 L1857.49 130.764  Z
  " fill="#ffffff" fill-rule="evenodd" fill-opacity="1"/>
<polyline clip-path="url(#clip5500)" style="stroke:#000000; stroke-width:4; stroke-opacity:1; fill:none" points="
  1857.49,251.724 2280.76,251.724 2280.76,130.764 1857.49,130.764 1857.49,251.724 
  "/>
<path clip-path="url(#clip5500)" d="
M1881.49 215.436 L2025.49 215.436 L2025.49 167.052 L1881.49 167.052 L1881.49 215.436  Z
  " fill="#009af9" fill-rule="evenodd" fill-opacity="1"/>
<polyline clip-path="url(#clip5500)" style="stroke:#000000; stroke-width:4; stroke-opacity:1; fill:none" points="
  1881.49,215.436 2025.49,215.436 2025.49,167.052 1881.49,167.052 1881.49,215.436 
  "/>
<path clip-path="url(#clip5500)" d="M 0 0 M2049.49 172.506 L2059.31 172.506 L2059.31 175.816 L2053.75 175.816 L2053.75 211.464 L2059.31 211.464 L2059.31 214.774 L2049.49 214.774 L2049.49 172.506 Z" fill="#000000" fill-rule="evenodd" fill-opacity="1" /><path clip-path="url(#clip5500)" d="M 0 0 M2067.8 173.964 L2067.8 186.811 L2063.87 186.811 L2063.87 173.964 L2067.8 173.964 M2076.55 173.964 L2076.55 186.811 L2072.62 186.811 L2072.62 173.964 L2076.55 173.964 Z" fill="#000000" fill-rule="evenodd" fill-opacity="1" /><path clip-path="url(#clip5500)" d="M 0 0 M2092.8 195.492 Q2087.64 195.492 2085.65 196.672 Q2083.66 197.853 2083.66 200.7 Q2083.66 202.969 2085.14 204.311 Q2086.65 205.631 2089.22 205.631 Q2092.76 205.631 2094.89 203.131 Q2097.04 200.607 2097.04 196.441 L2097.04 195.492 L2092.8 195.492 M2101.3 193.733 L2101.3 208.524 L2097.04 208.524 L2097.04 204.589 Q2095.58 206.95 2093.4 208.084 Q2091.23 209.195 2088.08 209.195 Q2084.1 209.195 2081.74 206.973 Q2079.4 204.728 2079.4 200.978 Q2079.4 196.603 2082.32 194.381 Q2085.26 192.158 2091.07 192.158 L2097.04 192.158 L2097.04 191.742 Q2097.04 188.802 2095.09 187.205 Q2093.17 185.584 2089.68 185.584 Q2087.46 185.584 2085.35 186.117 Q2083.24 186.649 2081.3 187.714 L2081.3 183.779 Q2083.64 182.876 2085.84 182.436 Q2088.03 181.973 2090.12 181.973 Q2095.74 181.973 2098.52 184.89 Q2101.3 187.807 2101.3 193.733 Z" fill="#000000" fill-rule="evenodd" fill-opacity="1" /><path clip-path="url(#clip5500)" d="M 0 0 M2124.42 183.594 L2124.42 187.575 Q2122.62 186.58 2120.79 186.094 Q2118.98 185.584 2117.13 185.584 Q2112.99 185.584 2110.7 188.223 Q2108.4 190.839 2108.4 195.584 Q2108.4 200.33 2110.7 202.969 Q2112.99 205.584 2117.13 205.584 Q2118.98 205.584 2120.79 205.098 Q2122.62 204.589 2124.42 203.594 L2124.42 207.529 Q2122.64 208.362 2120.72 208.779 Q2118.82 209.195 2116.67 209.195 Q2110.81 209.195 2107.36 205.515 Q2103.91 201.834 2103.91 195.584 Q2103.91 189.242 2107.39 185.608 Q2110.88 181.973 2116.95 181.973 Q2118.91 181.973 2120.79 182.39 Q2122.66 182.783 2124.42 183.594 Z" fill="#000000" fill-rule="evenodd" fill-opacity="1" /><path clip-path="url(#clip5500)" d="M 0 0 M2133.1 175.237 L2133.1 182.598 L2141.88 182.598 L2141.88 185.908 L2133.1 185.908 L2133.1 199.982 Q2133.1 203.154 2133.96 204.057 Q2134.84 204.959 2137.5 204.959 L2141.88 204.959 L2141.88 208.524 L2137.5 208.524 Q2132.57 208.524 2130.7 206.695 Q2128.82 204.844 2128.82 199.982 L2128.82 185.908 L2125.7 185.908 L2125.7 182.598 L2128.82 182.598 L2128.82 175.237 L2133.1 175.237 Z" fill="#000000" fill-rule="evenodd" fill-opacity="1" /><path clip-path="url(#clip5500)" d="M 0 0 M2145.9 198.293 L2145.9 182.598 L2150.16 182.598 L2150.16 198.131 Q2150.16 201.811 2151.6 203.663 Q2153.03 205.492 2155.9 205.492 Q2159.35 205.492 2161.34 203.293 Q2163.36 201.094 2163.36 197.297 L2163.36 182.598 L2167.62 182.598 L2167.62 208.524 L2163.36 208.524 L2163.36 204.543 Q2161.81 206.904 2159.75 208.061 Q2157.71 209.195 2155 209.195 Q2150.53 209.195 2148.22 206.418 Q2145.9 203.64 2145.9 198.293 M2156.62 181.973 L2156.62 181.973 Z" fill="#000000" fill-rule="evenodd" fill-opacity="1" /><path clip-path="url(#clip5500)" d="M 0 0 M2183.87 195.492 Q2178.71 195.492 2176.71 196.672 Q2174.72 197.853 2174.72 200.7 Q2174.72 202.969 2176.21 204.311 Q2177.71 205.631 2180.28 205.631 Q2183.82 205.631 2185.95 203.131 Q2188.1 200.607 2188.1 196.441 L2188.1 195.492 L2183.87 195.492 M2192.36 193.733 L2192.36 208.524 L2188.1 208.524 L2188.1 204.589 Q2186.65 206.95 2184.47 208.084 Q2182.29 209.195 2179.15 209.195 Q2175.16 209.195 2172.8 206.973 Q2170.46 204.728 2170.46 200.978 Q2170.46 196.603 2173.38 194.381 Q2176.32 192.158 2182.13 192.158 L2188.1 192.158 L2188.1 191.742 Q2188.1 188.802 2186.16 187.205 Q2184.24 185.584 2180.74 185.584 Q2178.52 185.584 2176.41 186.117 Q2174.31 186.649 2172.36 187.714 L2172.36 183.779 Q2174.7 182.876 2176.9 182.436 Q2179.1 181.973 2181.18 181.973 Q2186.81 181.973 2189.58 184.89 Q2192.36 187.807 2192.36 193.733 Z" fill="#000000" fill-rule="evenodd" fill-opacity="1" /><path clip-path="url(#clip5500)" d="M 0 0 M2196.83 172.506 L2201.09 172.506 L2201.09 208.524 L2196.83 208.524 L2196.83 172.506 Z" fill="#000000" fill-rule="evenodd" fill-opacity="1" /><path clip-path="url(#clip5500)" d="M 0 0 M2209.58 173.964 L2209.58 186.811 L2205.65 186.811 L2205.65 173.964 L2209.58 173.964 M2218.33 173.964 L2218.33 186.811 L2214.4 186.811 L2214.4 173.964 L2218.33 173.964 Z" fill="#000000" fill-rule="evenodd" fill-opacity="1" /><path clip-path="url(#clip5500)" d="M 0 0 M2232.76 172.506 L2232.76 214.774 L2222.94 214.774 L2222.94 211.464 L2228.47 211.464 L2228.47 175.816 L2222.94 175.816 L2222.94 172.506 L2232.76 172.506 Z" fill="#000000" fill-rule="evenodd" fill-opacity="1" /></svg>
