<?xml version="1.0" encoding="utf-8"?>
<svg xmlns="http://www.w3.org/2000/svg" xmlns:xlink="http://www.w3.org/1999/xlink" width="600" height="400" viewBox="0 0 2400 1600">
<defs>
  <clipPath id="clip4700">
    <rect x="0" y="0" width="2400" height="1600"/>
  </clipPath>
</defs>
<path clip-path="url(#clip4700)" d="
M0 1600 L2400 1600 L2400 0 L0 0  Z
  " fill="#ffffff" fill-rule="evenodd" fill-opacity="1"/>
<defs>
  <clipPath id="clip4701">
    <rect x="480" y="0" width="1681" height="1600"/>
  </clipPath>
</defs>
<path clip-path="url(#clip4700)" d="
M162.964 1486.45 L2352.76 1486.45 L2352.76 47.2441 L162.964 47.2441  Z
  " fill="#ffffff" fill-rule="evenodd" fill-opacity="1"/>
<defs>
  <clipPath id="clip4702">
    <rect x="162" y="47" width="2191" height="1440"/>
  </clipPath>
</defs>
<polyline clip-path="url(#clip4702)" style="stroke:#000000; stroke-width:2; stroke-opacity:0.1; fill:none" points="
  253.878,1486.45 253.878,47.2441 
  "/>
<polyline clip-path="url(#clip4702)" style="stroke:#000000; stroke-width:2; stroke-opacity:0.1; fill:none" points="
  844.455,1486.45 844.455,47.2441 
  "/>
<polyline clip-path="url(#clip4702)" style="stroke:#000000; stroke-width:2; stroke-opacity:0.1; fill:none" points="
  1435.03,1486.45 1435.03,47.2441 
  "/>
<polyline clip-path="url(#clip4702)" style="stroke:#000000; stroke-width:2; stroke-opacity:0.1; fill:none" points="
  2025.61,1486.45 2025.61,47.2441 
  "/>
<polyline clip-path="url(#clip4702)" style="stroke:#000000; stroke-width:2; stroke-opacity:0.1; fill:none" points="
  162.964,1445.72 2352.76,1445.72 
  "/>
<polyline clip-path="url(#clip4702)" style="stroke:#000000; stroke-width:2; stroke-opacity:0.1; fill:none" points="
  162.964,1209.18 2352.76,1209.18 
  "/>
<polyline clip-path="url(#clip4702)" style="stroke:#000000; stroke-width:2; stroke-opacity:0.1; fill:none" points="
  162.964,972.636 2352.76,972.636 
  "/>
<polyline clip-path="url(#clip4702)" style="stroke:#000000; stroke-width:2; stroke-opacity:0.1; fill:none" points="
  162.964,736.096 2352.76,736.096 
  "/>
<polyline clip-path="url(#clip4702)" style="stroke:#000000; stroke-width:2; stroke-opacity:0.1; fill:none" points="
  162.964,499.556 2352.76,499.556 
  "/>
<polyline clip-path="url(#clip4702)" style="stroke:#000000; stroke-width:2; stroke-opacity:0.1; fill:none" points="
  162.964,263.016 2352.76,263.016 
  "/>
<polyline clip-path="url(#clip4700)" style="stroke:#000000; stroke-width:4; stroke-opacity:1; fill:none" points="
  162.964,1486.45 2352.76,1486.45 
  "/>
<polyline clip-path="url(#clip4700)" style="stroke:#000000; stroke-width:4; stroke-opacity:1; fill:none" points="
  162.964,1486.45 162.964,47.2441 
  "/>
<polyline clip-path="url(#clip4700)" style="stroke:#000000; stroke-width:4; stroke-opacity:1; fill:none" points="
  253.878,1486.45 253.878,1469.18 
  "/>
<polyline clip-path="url(#clip4700)" style="stroke:#000000; stroke-width:4; stroke-opacity:1; fill:none" points="
  844.455,1486.45 844.455,1469.18 
  "/>
<polyline clip-path="url(#clip4700)" style="stroke:#000000; stroke-width:4; stroke-opacity:1; fill:none" points="
  1435.03,1486.45 1435.03,1469.18 
  "/>
<polyline clip-path="url(#clip4700)" style="stroke:#000000; stroke-width:4; stroke-opacity:1; fill:none" points="
  2025.61,1486.45 2025.61,1469.18 
  "/>
<polyline clip-path="url(#clip4700)" style="stroke:#000000; stroke-width:4; stroke-opacity:1; fill:none" points="
  162.964,1445.72 189.241,1445.72 
  "/>
<polyline clip-path="url(#clip4700)" style="stroke:#000000; stroke-width:4; stroke-opacity:1; fill:none" points="
  162.964,1209.18 189.241,1209.18 
  "/>
<polyline clip-path="url(#clip4700)" style="stroke:#000000; stroke-width:4; stroke-opacity:1; fill:none" points="
  162.964,972.636 189.241,972.636 
  "/>
<polyline clip-path="url(#clip4700)" style="stroke:#000000; stroke-width:4; stroke-opacity:1; fill:none" points="
  162.964,736.096 189.241,736.096 
  "/>
<polyline clip-path="url(#clip4700)" style="stroke:#000000; stroke-width:4; stroke-opacity:1; fill:none" points="
  162.964,499.556 189.241,499.556 
  "/>
<polyline clip-path="url(#clip4700)" style="stroke:#000000; stroke-width:4; stroke-opacity:1; fill:none" points="
  162.964,263.016 189.241,263.016 
  "/>
<path clip-path="url(#clip4700)" d="M 0 0 M253.878 1508.44 Q250.266 1508.44 248.438 1512 Q246.632 1515.55 246.632 1522.67 Q246.632 1529.78 248.438 1533.35 Q250.266 1536.89 253.878 1536.89 Q257.512 1536.89 259.317 1533.35 Q261.146 1529.78 261.146 1522.67 Q261.146 1515.55 259.317 1512 Q257.512 1508.44 253.878 1508.44 M253.878 1504.73 Q259.688 1504.73 262.743 1509.34 Q265.822 1513.92 265.822 1522.67 Q265.822 1531.4 262.743 1536.01 Q259.688 1540.59 253.878 1540.59 Q248.067 1540.59 244.989 1536.01 Q241.933 1531.4 241.933 1522.67 Q241.933 1513.92 244.989 1509.34 Q248.067 1504.73 253.878 1504.73 Z" fill="#000000" fill-rule="evenodd" fill-opacity="1" /><path clip-path="url(#clip4700)" d="M 0 0 M798.588 1535.98 L814.907 1535.98 L814.907 1539.92 L792.963 1539.92 L792.963 1535.98 Q795.625 1533.23 800.208 1528.6 Q804.814 1523.95 805.995 1522.61 Q808.24 1520.08 809.12 1518.35 Q810.023 1516.59 810.023 1514.9 Q810.023 1512.14 808.078 1510.41 Q806.157 1508.67 803.055 1508.67 Q800.856 1508.67 798.402 1509.43 Q795.972 1510.2 793.194 1511.75 L793.194 1507.03 Q796.018 1505.89 798.472 1505.31 Q800.926 1504.73 802.963 1504.73 Q808.333 1504.73 811.527 1507.42 Q814.722 1510.11 814.722 1514.6 Q814.722 1516.73 813.912 1518.65 Q813.125 1520.54 811.018 1523.14 Q810.439 1523.81 807.338 1527.03 Q804.236 1530.22 798.588 1535.98 Z" fill="#000000" fill-rule="evenodd" fill-opacity="1" /><path clip-path="url(#clip4700)" d="M 0 0 M829.976 1508.44 Q826.365 1508.44 824.537 1512 Q822.731 1515.55 822.731 1522.67 Q822.731 1529.78 824.537 1533.35 Q826.365 1536.89 829.976 1536.89 Q833.611 1536.89 835.416 1533.35 Q837.245 1529.78 837.245 1522.67 Q837.245 1515.55 835.416 1512 Q833.611 1508.44 829.976 1508.44 M829.976 1504.73 Q835.786 1504.73 838.842 1509.34 Q841.921 1513.92 841.921 1522.67 Q841.921 1531.4 838.842 1536.01 Q835.786 1540.59 829.976 1540.59 Q824.166 1540.59 821.087 1536.01 Q818.032 1531.4 818.032 1522.67 Q818.032 1513.92 821.087 1509.34 Q824.166 1504.73 829.976 1504.73 Z" fill="#000000" fill-rule="evenodd" fill-opacity="1" /><path clip-path="url(#clip4700)" d="M 0 0 M856.99 1508.44 Q853.379 1508.44 851.55 1512 Q849.745 1515.55 849.745 1522.67 Q849.745 1529.78 851.55 1533.35 Q853.379 1536.89 856.99 1536.89 Q860.624 1536.89 862.43 1533.35 Q864.259 1529.78 864.259 1522.67 Q864.259 1515.55 862.43 1512 Q860.624 1508.44 856.99 1508.44 M856.99 1504.73 Q862.8 1504.73 865.856 1509.34 Q868.934 1513.92 868.934 1522.67 Q868.934 1531.4 865.856 1536.01 Q862.8 1540.59 856.99 1540.59 Q851.18 1540.59 848.101 1536.01 Q845.046 1531.4 845.046 1522.67 Q845.046 1513.92 848.101 1509.34 Q851.18 1504.73 856.99 1504.73 Z" fill="#000000" fill-rule="evenodd" fill-opacity="1" /><path clip-path="url(#clip4700)" d="M 0 0 M884.004 1508.44 Q880.393 1508.44 878.564 1512 Q876.758 1515.55 876.758 1522.67 Q876.758 1529.78 878.564 1533.35 Q880.393 1536.89 884.004 1536.89 Q887.638 1536.89 889.444 1533.35 Q891.272 1529.78 891.272 1522.67 Q891.272 1515.55 889.444 1512 Q887.638 1508.44 884.004 1508.44 M884.004 1504.73 Q889.814 1504.73 892.869 1509.34 Q895.948 1513.92 895.948 1522.67 Q895.948 1531.4 892.869 1536.01 Q889.814 1540.59 884.004 1540.59 Q878.194 1540.59 875.115 1536.01 Q872.059 1531.4 872.059 1522.67 Q872.059 1513.92 875.115 1509.34 Q878.194 1504.73 884.004 1504.73 Z" fill="#000000" fill-rule="evenodd" fill-opacity="1" /><path clip-path="url(#clip4700)" d="M 0 0 M1397.52 1509.43 L1385.72 1527.88 L1397.52 1527.88 L1397.52 1509.43 M1396.3 1505.36 L1402.17 1505.36 L1402.17 1527.88 L1407.11 1527.88 L1407.11 1531.77 L1402.17 1531.77 L1402.17 1539.92 L1397.52 1539.92 L1397.52 1531.77 L1381.92 1531.77 L1381.92 1527.26 L1396.3 1505.36 Z" fill="#000000" fill-rule="evenodd" fill-opacity="1" /><path clip-path="url(#clip4700)" d="M 0 0 M1422.17 1508.44 Q1418.56 1508.44 1416.73 1512 Q1414.93 1515.55 1414.93 1522.67 Q1414.93 1529.78 1416.73 1533.35 Q1418.56 1536.89 1422.17 1536.89 Q1425.81 1536.89 1427.61 1533.35 Q1429.44 1529.78 1429.44 1522.67 Q1429.44 1515.55 1427.61 1512 Q1425.81 1508.44 1422.17 1508.44 M1422.17 1504.73 Q1427.98 1504.73 1431.04 1509.34 Q1434.12 1513.92 1434.12 1522.67 Q1434.12 1531.4 1431.04 1536.01 Q1427.98 1540.59 1422.17 1540.59 Q1416.36 1540.59 1413.29 1536.01 Q1410.23 1531.4 1410.23 1522.67 Q1410.23 1513.92 1413.29 1509.34 Q1416.36 1504.73 1422.17 1504.73 Z" fill="#000000" fill-rule="evenodd" fill-opacity="1" /><path clip-path="url(#clip4700)" d="M 0 0 M1449.19 1508.44 Q1445.58 1508.44 1443.75 1512 Q1441.94 1515.55 1441.94 1522.67 Q1441.94 1529.78 1443.75 1533.35 Q1445.58 1536.89 1449.19 1536.89 Q1452.82 1536.89 1454.63 1533.35 Q1456.46 1529.78 1456.46 1522.67 Q1456.46 1515.55 1454.63 1512 Q1452.82 1508.44 1449.19 1508.44 M1449.19 1504.73 Q1455 1504.73 1458.05 1509.34 Q1461.13 1513.92 1461.13 1522.67 Q1461.13 1531.4 1458.05 1536.01 Q1455 1540.59 1449.19 1540.59 Q1443.38 1540.59 1440.3 1536.01 Q1437.24 1531.4 1437.24 1522.67 Q1437.24 1513.92 1440.3 1509.34 Q1443.38 1504.73 1449.19 1504.73 Z" fill="#000000" fill-rule="evenodd" fill-opacity="1" /><path clip-path="url(#clip4700)" d="M 0 0 M1476.2 1508.44 Q1472.59 1508.44 1470.76 1512 Q1468.96 1515.55 1468.96 1522.67 Q1468.96 1529.78 1470.76 1533.35 Q1472.59 1536.89 1476.2 1536.89 Q1479.84 1536.89 1481.64 1533.35 Q1483.47 1529.78 1483.47 1522.67 Q1483.47 1515.55 1481.64 1512 Q1479.84 1508.44 1476.2 1508.44 M1476.2 1504.73 Q1482.01 1504.73 1485.07 1509.34 Q1488.15 1513.92 1488.15 1522.67 Q1488.15 1531.4 1485.07 1536.01 Q1482.01 1540.59 1476.2 1540.59 Q1470.39 1540.59 1467.31 1536.01 Q1464.26 1531.4 1464.26 1522.67 Q1464.26 1513.92 1467.31 1509.34 Q1470.39 1504.73 1476.2 1504.73 Z" fill="#000000" fill-rule="evenodd" fill-opacity="1" /><path clip-path="url(#clip4700)" d="M 0 0 M1985.5 1520.78 Q1982.35 1520.78 1980.5 1522.93 Q1978.67 1525.08 1978.67 1528.83 Q1978.67 1532.56 1980.5 1534.73 Q1982.35 1536.89 1985.5 1536.89 Q1988.64 1536.89 1990.47 1534.73 Q1992.32 1532.56 1992.32 1528.83 Q1992.32 1525.08 1990.47 1522.93 Q1988.64 1520.78 1985.5 1520.78 M1994.78 1506.12 L1994.78 1510.38 Q1993.02 1509.55 1991.21 1509.11 Q1989.43 1508.67 1987.67 1508.67 Q1983.04 1508.67 1980.59 1511.8 Q1978.16 1514.92 1977.81 1521.24 Q1979.18 1519.23 1981.24 1518.16 Q1983.3 1517.07 1985.77 1517.07 Q1990.98 1517.07 1993.99 1520.24 Q1997.02 1523.39 1997.02 1528.83 Q1997.02 1534.16 1993.88 1537.37 Q1990.73 1540.59 1985.5 1540.59 Q1979.5 1540.59 1976.33 1536.01 Q1973.16 1531.4 1973.16 1522.67 Q1973.16 1514.48 1977.05 1509.62 Q1980.94 1504.73 1987.49 1504.73 Q1989.25 1504.73 1991.03 1505.08 Q1992.83 1505.43 1994.78 1506.12 Z" fill="#000000" fill-rule="evenodd" fill-opacity="1" /><path clip-path="url(#clip4700)" d="M 0 0 M2012.09 1508.44 Q2008.48 1508.44 2006.65 1512 Q2004.85 1515.55 2004.85 1522.67 Q2004.85 1529.78 2006.65 1533.35 Q2008.48 1536.89 2012.09 1536.89 Q2015.73 1536.89 2017.53 1533.35 Q2019.36 1529.78 2019.36 1522.67 Q2019.36 1515.55 2017.53 1512 Q2015.73 1508.44 2012.09 1508.44 M2012.09 1504.73 Q2017.9 1504.73 2020.96 1509.34 Q2024.04 1513.92 2024.04 1522.67 Q2024.04 1531.4 2020.96 1536.01 Q2017.9 1540.59 2012.09 1540.59 Q2006.28 1540.59 2003.2 1536.01 Q2000.15 1531.4 2000.15 1522.67 Q2000.15 1513.92 2003.2 1509.34 Q2006.28 1504.73 2012.09 1504.73 Z" fill="#000000" fill-rule="evenodd" fill-opacity="1" /><path clip-path="url(#clip4700)" d="M 0 0 M2039.11 1508.44 Q2035.5 1508.44 2033.67 1512 Q2031.86 1515.55 2031.86 1522.67 Q2031.86 1529.78 2033.67 1533.35 Q2035.5 1536.89 2039.11 1536.89 Q2042.74 1536.89 2044.55 1533.35 Q2046.37 1529.78 2046.37 1522.67 Q2046.37 1515.55 2044.55 1512 Q2042.74 1508.44 2039.11 1508.44 M2039.11 1504.73 Q2044.92 1504.73 2047.97 1509.34 Q2051.05 1513.92 2051.05 1522.67 Q2051.05 1531.4 2047.97 1536.01 Q2044.92 1540.59 2039.11 1540.59 Q2033.3 1540.59 2030.22 1536.01 Q2027.16 1531.4 2027.16 1522.67 Q2027.16 1513.92 2030.22 1509.34 Q2033.3 1504.73 2039.11 1504.73 Z" fill="#000000" fill-rule="evenodd" fill-opacity="1" /><path clip-path="url(#clip4700)" d="M 0 0 M2066.12 1508.44 Q2062.51 1508.44 2060.68 1512 Q2058.87 1515.55 2058.87 1522.67 Q2058.87 1529.78 2060.68 1533.35 Q2062.51 1536.89 2066.12 1536.89 Q2069.75 1536.89 2071.56 1533.35 Q2073.39 1529.78 2073.39 1522.67 Q2073.39 1515.55 2071.56 1512 Q2069.75 1508.44 2066.12 1508.44 M2066.12 1504.73 Q2071.93 1504.73 2074.99 1509.34 Q2078.06 1513.92 2078.06 1522.67 Q2078.06 1531.4 2074.99 1536.01 Q2071.93 1540.59 2066.12 1540.59 Q2060.31 1540.59 2057.23 1536.01 Q2054.18 1531.4 2054.18 1522.67 Q2054.18 1513.92 2057.23 1509.34 Q2060.31 1504.73 2066.12 1504.73 Z" fill="#000000" fill-rule="evenodd" fill-opacity="1" /><path clip-path="url(#clip4700)" d="M 0 0 M127.02 1431.51 Q123.408 1431.51 121.58 1435.08 Q119.774 1438.62 119.774 1445.75 Q119.774 1452.86 121.58 1456.42 Q123.408 1459.96 127.02 1459.96 Q130.654 1459.96 132.459 1456.42 Q134.288 1452.86 134.288 1445.75 Q134.288 1438.62 132.459 1435.08 Q130.654 1431.51 127.02 1431.51 M127.02 1427.81 Q132.83 1427.81 135.885 1432.42 Q138.964 1437 138.964 1445.75 Q138.964 1454.48 135.885 1459.08 Q132.83 1463.67 127.02 1463.67 Q121.209 1463.67 118.131 1459.08 Q115.075 1454.48 115.075 1445.75 Q115.075 1437 118.131 1432.42 Q121.209 1427.81 127.02 1427.81 Z" fill="#000000" fill-rule="evenodd" fill-opacity="1" /><path clip-path="url(#clip4700)" d="M 0 0 M91.0475 1191.9 L109.404 1191.9 L109.404 1195.83 L95.3299 1195.83 L95.3299 1204.3 Q96.3484 1203.96 97.3669 1203.79 Q98.3855 1203.61 99.404 1203.61 Q105.191 1203.61 108.571 1206.78 Q111.95 1209.95 111.95 1215.37 Q111.95 1220.95 108.478 1224.05 Q105.006 1227.13 98.6864 1227.13 Q96.5105 1227.13 94.242 1226.76 Q91.9966 1226.39 89.5892 1225.65 L89.5892 1220.95 Q91.6725 1222.08 93.8947 1222.64 Q96.1169 1223.19 98.5938 1223.19 Q102.598 1223.19 104.936 1221.09 Q107.274 1218.98 107.274 1215.37 Q107.274 1211.76 104.936 1209.65 Q102.598 1207.54 98.5938 1207.54 Q96.7188 1207.54 94.8438 1207.96 Q92.992 1208.38 91.0475 1209.26 L91.0475 1191.9 Z" fill="#000000" fill-rule="evenodd" fill-opacity="1" /><path clip-path="url(#clip4700)" d="M 0 0 M127.02 1194.97 Q123.408 1194.97 121.58 1198.54 Q119.774 1202.08 119.774 1209.21 Q119.774 1216.32 121.58 1219.88 Q123.408 1223.42 127.02 1223.42 Q130.654 1223.42 132.459 1219.88 Q134.288 1216.32 134.288 1209.21 Q134.288 1202.08 132.459 1198.54 Q130.654 1194.97 127.02 1194.97 M127.02 1191.27 Q132.83 1191.27 135.885 1195.88 Q138.964 1200.46 138.964 1209.21 Q138.964 1217.94 135.885 1222.54 Q132.83 1227.13 127.02 1227.13 Q121.209 1227.13 118.131 1222.54 Q115.075 1217.94 115.075 1209.21 Q115.075 1200.46 118.131 1195.88 Q121.209 1191.27 127.02 1191.27 Z" fill="#000000" fill-rule="evenodd" fill-opacity="1" /><path clip-path="url(#clip4700)" d="M 0 0 M65.0292 985.981 L72.668 985.981 L72.668 959.615 L64.3579 961.282 L64.3579 957.022 L72.6217 955.356 L77.2976 955.356 L77.2976 985.981 L84.9365 985.981 L84.9365 989.916 L65.0292 989.916 L65.0292 985.981 Z" fill="#000000" fill-rule="evenodd" fill-opacity="1" /><path clip-path="url(#clip4700)" d="M 0 0 M100.006 958.434 Q96.3947 958.434 94.566 961.999 Q92.7605 965.541 92.7605 972.67 Q92.7605 979.777 94.566 983.342 Q96.3947 986.883 100.006 986.883 Q103.64 986.883 105.446 983.342 Q107.274 979.777 107.274 972.67 Q107.274 965.541 105.446 961.999 Q103.64 958.434 100.006 958.434 M100.006 954.731 Q105.816 954.731 108.872 959.337 Q111.95 963.921 111.95 972.67 Q111.95 981.397 108.872 986.004 Q105.816 990.587 100.006 990.587 Q94.1957 990.587 91.117 986.004 Q88.0614 981.397 88.0614 972.67 Q88.0614 963.921 91.117 959.337 Q94.1957 954.731 100.006 954.731 Z" fill="#000000" fill-rule="evenodd" fill-opacity="1" /><path clip-path="url(#clip4700)" d="M 0 0 M127.02 958.434 Q123.408 958.434 121.58 961.999 Q119.774 965.541 119.774 972.67 Q119.774 979.777 121.58 983.342 Q123.408 986.883 127.02 986.883 Q130.654 986.883 132.459 983.342 Q134.288 979.777 134.288 972.67 Q134.288 965.541 132.459 961.999 Q130.654 958.434 127.02 958.434 M127.02 954.731 Q132.83 954.731 135.885 959.337 Q138.964 963.921 138.964 972.67 Q138.964 981.397 135.885 986.004 Q132.83 990.587 127.02 990.587 Q121.209 990.587 118.131 986.004 Q115.075 981.397 115.075 972.67 Q115.075 963.921 118.131 959.337 Q121.209 954.731 127.02 954.731 Z" fill="#000000" fill-rule="evenodd" fill-opacity="1" /><path clip-path="url(#clip4700)" d="M 0 0 M66.0245 749.441 L73.6634 749.441 L73.6634 723.075 L65.3532 724.742 L65.3532 720.482 L73.6171 718.816 L78.293 718.816 L78.293 749.441 L85.9318 749.441 L85.9318 753.376 L66.0245 753.376 L66.0245 749.441 Z" fill="#000000" fill-rule="evenodd" fill-opacity="1" /><path clip-path="url(#clip4700)" d="M 0 0 M91.0475 718.816 L109.404 718.816 L109.404 722.751 L95.3299 722.751 L95.3299 731.223 Q96.3484 730.876 97.3669 730.714 Q98.3855 730.529 99.404 730.529 Q105.191 730.529 108.571 733.7 Q111.95 736.871 111.95 742.288 Q111.95 747.867 108.478 750.968 Q105.006 754.047 98.6864 754.047 Q96.5105 754.047 94.242 753.677 Q91.9966 753.306 89.5892 752.566 L89.5892 747.867 Q91.6725 749.001 93.8947 749.556 Q96.1169 750.112 98.5938 750.112 Q102.598 750.112 104.936 748.005 Q107.274 745.899 107.274 742.288 Q107.274 738.677 104.936 736.57 Q102.598 734.464 98.5938 734.464 Q96.7188 734.464 94.8438 734.881 Q92.992 735.297 91.0475 736.177 L91.0475 718.816 Z" fill="#000000" fill-rule="evenodd" fill-opacity="1" /><path clip-path="url(#clip4700)" d="M 0 0 M127.02 721.894 Q123.408 721.894 121.58 725.459 Q119.774 729.001 119.774 736.131 Q119.774 743.237 121.58 746.802 Q123.408 750.343 127.02 750.343 Q130.654 750.343 132.459 746.802 Q134.288 743.237 134.288 736.131 Q134.288 729.001 132.459 725.459 Q130.654 721.894 127.02 721.894 M127.02 718.191 Q132.83 718.191 135.885 722.797 Q138.964 727.381 138.964 736.131 Q138.964 744.857 135.885 749.464 Q132.83 754.047 127.02 754.047 Q121.209 754.047 118.131 749.464 Q115.075 744.857 115.075 736.131 Q115.075 727.381 118.131 722.797 Q121.209 718.191 127.02 718.191 Z" fill="#000000" fill-rule="evenodd" fill-opacity="1" /><path clip-path="url(#clip4700)" d="M 0 0 M68.6171 512.901 L84.9365 512.901 L84.9365 516.836 L62.9921 516.836 L62.9921 512.901 Q65.6541 510.146 70.2375 505.516 Q74.8439 500.864 76.0245 499.521 Q78.2698 496.998 79.1494 495.262 Q80.0522 493.503 80.0522 491.813 Q80.0522 489.058 78.1078 487.322 Q76.1865 485.586 73.0847 485.586 Q70.8856 485.586 68.4319 486.35 Q66.0014 487.114 63.2236 488.665 L63.2236 483.942 Q66.0477 482.808 68.5014 482.23 Q70.955 481.651 72.9921 481.651 Q78.3624 481.651 81.5568 484.336 Q84.7513 487.021 84.7513 491.512 Q84.7513 493.642 83.9411 495.563 Q83.1541 497.461 81.0476 500.054 Q80.4689 500.725 77.367 503.942 Q74.2652 507.137 68.6171 512.901 Z" fill="#000000" fill-rule="evenodd" fill-opacity="1" /><path clip-path="url(#clip4700)" d="M 0 0 M100.006 485.355 Q96.3947 485.355 94.566 488.919 Q92.7605 492.461 92.7605 499.591 Q92.7605 506.697 94.566 510.262 Q96.3947 513.803 100.006 513.803 Q103.64 513.803 105.446 510.262 Q107.274 506.697 107.274 499.591 Q107.274 492.461 105.446 488.919 Q103.64 485.355 100.006 485.355 M100.006 481.651 Q105.816 481.651 108.872 486.257 Q111.95 490.841 111.95 499.591 Q111.95 508.317 108.872 512.924 Q105.816 517.507 100.006 517.507 Q94.1957 517.507 91.117 512.924 Q88.0614 508.317 88.0614 499.591 Q88.0614 490.841 91.117 486.257 Q94.1957 481.651 100.006 481.651 Z" fill="#000000" fill-rule="evenodd" fill-opacity="1" /><path clip-path="url(#clip4700)" d="M 0 0 M127.02 485.355 Q123.408 485.355 121.58 488.919 Q119.774 492.461 119.774 499.591 Q119.774 506.697 121.58 510.262 Q123.408 513.803 127.02 513.803 Q130.654 513.803 132.459 510.262 Q134.288 506.697 134.288 499.591 Q134.288 492.461 132.459 488.919 Q130.654 485.355 127.02 485.355 M127.02 481.651 Q132.83 481.651 135.885 486.257 Q138.964 490.841 138.964 499.591 Q138.964 508.317 135.885 512.924 Q132.83 517.507 127.02 517.507 Q121.209 517.507 118.131 512.924 Q115.075 508.317 115.075 499.591 Q115.075 490.841 118.131 486.257 Q121.209 481.651 127.02 481.651 Z" fill="#000000" fill-rule="evenodd" fill-opacity="1" /><path clip-path="url(#clip4700)" d="M 0 0 M69.6125 276.361 L85.9318 276.361 L85.9318 280.296 L63.9875 280.296 L63.9875 276.361 Q66.6495 273.606 71.2328 268.976 Q75.8393 264.324 77.0198 262.981 Q79.2652 260.458 80.1448 258.722 Q81.0476 256.963 81.0476 255.273 Q81.0476 252.518 79.1032 250.782 Q77.1819 249.046 74.08 249.046 Q71.881 249.046 69.4273 249.81 Q66.9967 250.574 64.219 252.125 L64.219 247.403 Q67.043 246.268 69.4967 245.69 Q71.9504 245.111 73.9874 245.111 Q79.3578 245.111 82.5522 247.796 Q85.7466 250.481 85.7466 254.972 Q85.7466 257.102 84.9365 259.023 Q84.1494 260.921 82.0429 263.514 Q81.4642 264.185 78.3624 267.402 Q75.2606 270.597 69.6125 276.361 Z" fill="#000000" fill-rule="evenodd" fill-opacity="1" /><path clip-path="url(#clip4700)" d="M 0 0 M91.0475 245.736 L109.404 245.736 L109.404 249.671 L95.3299 249.671 L95.3299 258.143 Q96.3484 257.796 97.3669 257.634 Q98.3855 257.449 99.404 257.449 Q105.191 257.449 108.571 260.62 Q111.95 263.791 111.95 269.208 Q111.95 274.787 108.478 277.888 Q105.006 280.967 98.6864 280.967 Q96.5105 280.967 94.242 280.597 Q91.9966 280.226 89.5892 279.486 L89.5892 274.787 Q91.6725 275.921 93.8947 276.476 Q96.1169 277.032 98.5938 277.032 Q102.598 277.032 104.936 274.926 Q107.274 272.819 107.274 269.208 Q107.274 265.597 104.936 263.49 Q102.598 261.384 98.5938 261.384 Q96.7188 261.384 94.8438 261.801 Q92.992 262.217 91.0475 263.097 L91.0475 245.736 Z" fill="#000000" fill-rule="evenodd" fill-opacity="1" /><path clip-path="url(#clip4700)" d="M 0 0 M127.02 248.815 Q123.408 248.815 121.58 252.379 Q119.774 255.921 119.774 263.051 Q119.774 270.157 121.58 273.722 Q123.408 277.263 127.02 277.263 Q130.654 277.263 132.459 273.722 Q134.288 270.157 134.288 263.051 Q134.288 255.921 132.459 252.379 Q130.654 248.815 127.02 248.815 M127.02 245.111 Q132.83 245.111 135.885 249.717 Q138.964 254.301 138.964 263.051 Q138.964 271.777 135.885 276.384 Q132.83 280.967 127.02 280.967 Q121.209 280.967 118.131 276.384 Q115.075 271.777 115.075 263.051 Q115.075 254.301 118.131 249.717 Q121.209 245.111 127.02 245.111 Z" fill="#000000" fill-rule="evenodd" fill-opacity="1" /><path clip-path="url(#clip4702)" d="
M283.406 1431.52 L283.406 1445.72 L312.935 1445.72 L312.935 1431.52 L283.406 1431.52 L283.406 1431.52  Z
  " fill="#009af9" fill-rule="evenodd" fill-opacity="1"/>
<polyline clip-path="url(#clip4702)" style="stroke:#000000; stroke-width:4; stroke-opacity:1; fill:none" points="
  283.406,1431.52 283.406,1445.72 312.935,1445.72 312.935,1431.52 283.406,1431.52 
  "/>
<path clip-path="url(#clip4702)" d="
M312.935 87.9763 L312.935 1445.72 L342.464 1445.72 L342.464 87.9763 L312.935 87.9763 L312.935 87.9763  Z
  " fill="#009af9" fill-rule="evenodd" fill-opacity="1"/>
<polyline clip-path="url(#clip4702)" style="stroke:#000000; stroke-width:4; stroke-opacity:1; fill:none" points="
  312.935,87.9763 312.935,1445.72 342.464,1445.72 342.464,87.9763 312.935,87.9763 
  "/>
<path clip-path="url(#clip4702)" d="
M342.464 414.401 L342.464 1445.72 L371.993 1445.72 L371.993 414.401 L342.464 414.401 L342.464 414.401  Z
  " fill="#009af9" fill-rule="evenodd" fill-opacity="1"/>
<polyline clip-path="url(#clip4702)" style="stroke:#000000; stroke-width:4; stroke-opacity:1; fill:none" points="
  342.464,414.401 342.464,1445.72 371.993,1445.72 371.993,414.401 342.464,414.401 
  "/>
<path clip-path="url(#clip4702)" d="
M371.993 901.674 L371.993 1445.72 L401.522 1445.72 L401.522 901.674 L371.993 901.674 L371.993 901.674  Z
  " fill="#009af9" fill-rule="evenodd" fill-opacity="1"/>
<polyline clip-path="url(#clip4702)" style="stroke:#000000; stroke-width:4; stroke-opacity:1; fill:none" points="
  371.993,901.674 371.993,1445.72 401.522,1445.72 401.522,901.674 371.993,901.674 
  "/>
<path clip-path="url(#clip4702)" d="
M401.522 1299.06 L401.522 1445.72 L431.051 1445.72 L431.051 1299.06 L401.522 1299.06 L401.522 1299.06  Z
  " fill="#009af9" fill-rule="evenodd" fill-opacity="1"/>
<polyline clip-path="url(#clip4702)" style="stroke:#000000; stroke-width:4; stroke-opacity:1; fill:none" points="
  401.522,1299.06 401.522,1445.72 431.051,1445.72 431.051,1299.06 401.522,1299.06 
  "/>
<path clip-path="url(#clip4702)" d="
M431.051 1341.64 L431.051 1445.72 L460.58 1445.72 L460.58 1341.64 L431.051 1341.64 L431.051 1341.64  Z
  " fill="#009af9" fill-rule="evenodd" fill-opacity="1"/>
<polyline clip-path="url(#clip4702)" style="stroke:#000000; stroke-width:4; stroke-opacity:1; fill:none" points="
  431.051,1341.64 431.051,1445.72 460.58,1445.72 460.58,1341.64 431.051,1341.64 
  "/>
<path clip-path="url(#clip4702)" d="
M460.58 1445.72 L460.58 1445.72 L490.109 1445.72 L490.109 1445.72 L460.58 1445.72 L460.58 1445.72  Z
  " fill="#009af9" fill-rule="evenodd" fill-opacity="1"/>
<polyline clip-path="url(#clip4702)" style="stroke:#000000; stroke-width:4; stroke-opacity:1; fill:none" points="
  460.58,1445.72 460.58,1445.72 490.109,1445.72 460.58,1445.72 
  "/>
<path clip-path="url(#clip4702)" d="
M490.109 1440.98 L490.109 1445.72 L519.638 1445.72 L519.638 1440.98 L490.109 1440.98 L490.109 1440.98  Z
  " fill="#009af9" fill-rule="evenodd" fill-opacity="1"/>
<polyline clip-path="url(#clip4702)" style="stroke:#000000; stroke-width:4; stroke-opacity:1; fill:none" points="
  490.109,1440.98 490.109,1445.72 519.638,1445.72 519.638,1440.98 490.109,1440.98 
  "/>
<path clip-path="url(#clip4702)" d="
M519.638 1440.98 L519.638 1445.72 L549.166 1445.72 L549.166 1440.98 L519.638 1440.98 L519.638 1440.98  Z
  " fill="#009af9" fill-rule="evenodd" fill-opacity="1"/>
<polyline clip-path="url(#clip4702)" style="stroke:#000000; stroke-width:4; stroke-opacity:1; fill:none" points="
  519.638,1440.98 519.638,1445.72 549.166,1445.72 549.166,1440.98 519.638,1440.98 
  "/>
<path clip-path="url(#clip4702)" d="
M549.166 1440.98 L549.166 1445.72 L578.695 1445.72 L578.695 1440.98 L549.166 1440.98 L549.166 1440.98  Z
  " fill="#009af9" fill-rule="evenodd" fill-opacity="1"/>
<polyline clip-path="url(#clip4702)" style="stroke:#000000; stroke-width:4; stroke-opacity:1; fill:none" points="
  549.166,1440.98 549.166,1445.72 578.695,1445.72 578.695,1440.98 549.166,1440.98 
  "/>
<path clip-path="url(#clip4702)" d="
M578.695 1436.25 L578.695 1445.72 L608.224 1445.72 L608.224 1436.25 L578.695 1436.25 L578.695 1436.25  Z
  " fill="#009af9" fill-rule="evenodd" fill-opacity="1"/>
<polyline clip-path="url(#clip4702)" style="stroke:#000000; stroke-width:4; stroke-opacity:1; fill:none" points="
  578.695,1436.25 578.695,1445.72 608.224,1445.72 608.224,1436.25 578.695,1436.25 
  "/>
<path clip-path="url(#clip4702)" d="
M608.224 1445.72 L608.224 1445.72 L637.753 1445.72 L637.753 1445.72 L608.224 1445.72 L608.224 1445.72  Z
  " fill="#009af9" fill-rule="evenodd" fill-opacity="1"/>
<polyline clip-path="url(#clip4702)" style="stroke:#000000; stroke-width:4; stroke-opacity:1; fill:none" points="
  608.224,1445.72 608.224,1445.72 637.753,1445.72 608.224,1445.72 
  "/>
<path clip-path="url(#clip4702)" d="
M637.753 1436.25 L637.753 1445.72 L667.282 1445.72 L667.282 1436.25 L637.753 1436.25 L637.753 1436.25  Z
  " fill="#009af9" fill-rule="evenodd" fill-opacity="1"/>
<polyline clip-path="url(#clip4702)" style="stroke:#000000; stroke-width:4; stroke-opacity:1; fill:none" points="
  637.753,1436.25 637.753,1445.72 667.282,1445.72 667.282,1436.25 637.753,1436.25 
  "/>
<path clip-path="url(#clip4702)" d="
M667.282 1426.79 L667.282 1445.72 L696.811 1445.72 L696.811 1426.79 L667.282 1426.79 L667.282 1426.79  Z
  " fill="#009af9" fill-rule="evenodd" fill-opacity="1"/>
<polyline clip-path="url(#clip4702)" style="stroke:#000000; stroke-width:4; stroke-opacity:1; fill:none" points="
  667.282,1426.79 667.282,1445.72 696.811,1445.72 696.811,1426.79 667.282,1426.79 
  "/>
<path clip-path="url(#clip4702)" d="
M696.811 1436.25 L696.811 1445.72 L726.34 1445.72 L726.34 1436.25 L696.811 1436.25 L696.811 1436.25  Z
  " fill="#009af9" fill-rule="evenodd" fill-opacity="1"/>
<polyline clip-path="url(#clip4702)" style="stroke:#000000; stroke-width:4; stroke-opacity:1; fill:none" points="
  696.811,1436.25 696.811,1445.72 726.34,1445.72 726.34,1436.25 696.811,1436.25 
  "/>
<path clip-path="url(#clip4702)" d="
M726.34 1445.72 L726.34 1445.72 L755.869 1445.72 L755.869 1445.72 L726.34 1445.72 L726.34 1445.72  Z
  " fill="#009af9" fill-rule="evenodd" fill-opacity="1"/>
<polyline clip-path="url(#clip4702)" style="stroke:#000000; stroke-width:4; stroke-opacity:1; fill:none" points="
  726.34,1445.72 726.34,1445.72 755.869,1445.72 726.34,1445.72 
  "/>
<path clip-path="url(#clip4702)" d="
M755.869 1445.72 L755.869 1445.72 L785.398 1445.72 L785.398 1445.72 L755.869 1445.72 L755.869 1445.72  Z
  " fill="#009af9" fill-rule="evenodd" fill-opacity="1"/>
<polyline clip-path="url(#clip4702)" style="stroke:#000000; stroke-width:4; stroke-opacity:1; fill:none" points="
  755.869,1445.72 755.869,1445.72 785.398,1445.72 755.869,1445.72 
  "/>
<path clip-path="url(#clip4702)" d="
M785.398 1440.98 L785.398 1445.72 L814.927 1445.72 L814.927 1440.98 L785.398 1440.98 L785.398 1440.98  Z
  " fill="#009af9" fill-rule="evenodd" fill-opacity="1"/>
<polyline clip-path="url(#clip4702)" style="stroke:#000000; stroke-width:4; stroke-opacity:1; fill:none" points="
  785.398,1440.98 785.398,1445.72 814.927,1445.72 814.927,1440.98 785.398,1440.98 
  "/>
<path clip-path="url(#clip4702)" d="
M814.927 1445.72 L814.927 1445.72 L844.455 1445.72 L844.455 1445.72 L814.927 1445.72 L814.927 1445.72  Z
  " fill="#009af9" fill-rule="evenodd" fill-opacity="1"/>
<polyline clip-path="url(#clip4702)" style="stroke:#000000; stroke-width:4; stroke-opacity:1; fill:none" points="
  814.927,1445.72 814.927,1445.72 844.455,1445.72 814.927,1445.72 
  "/>
<path clip-path="url(#clip4702)" d="
M844.455 1445.72 L844.455 1445.72 L873.984 1445.72 L873.984 1445.72 L844.455 1445.72 L844.455 1445.72  Z
  " fill="#009af9" fill-rule="evenodd" fill-opacity="1"/>
<polyline clip-path="url(#clip4702)" style="stroke:#000000; stroke-width:4; stroke-opacity:1; fill:none" points="
  844.455,1445.72 844.455,1445.72 873.984,1445.72 844.455,1445.72 
  "/>
<path clip-path="url(#clip4702)" d="
M873.984 1440.98 L873.984 1445.72 L903.513 1445.72 L903.513 1440.98 L873.984 1440.98 L873.984 1440.98  Z
  " fill="#009af9" fill-rule="evenodd" fill-opacity="1"/>
<polyline clip-path="url(#clip4702)" style="stroke:#000000; stroke-width:4; stroke-opacity:1; fill:none" points="
  873.984,1440.98 873.984,1445.72 903.513,1445.72 903.513,1440.98 873.984,1440.98 
  "/>
<path clip-path="url(#clip4702)" d="
M903.513 1445.72 L903.513 1445.72 L933.042 1445.72 L933.042 1445.72 L903.513 1445.72 L903.513 1445.72  Z
  " fill="#009af9" fill-rule="evenodd" fill-opacity="1"/>
<polyline clip-path="url(#clip4702)" style="stroke:#000000; stroke-width:4; stroke-opacity:1; fill:none" points="
  903.513,1445.72 903.513,1445.72 933.042,1445.72 903.513,1445.72 
  "/>
<path clip-path="url(#clip4702)" d="
M933.042 1445.72 L933.042 1445.72 L962.571 1445.72 L962.571 1445.72 L933.042 1445.72 L933.042 1445.72  Z
  " fill="#009af9" fill-rule="evenodd" fill-opacity="1"/>
<polyline clip-path="url(#clip4702)" style="stroke:#000000; stroke-width:4; stroke-opacity:1; fill:none" points="
  933.042,1445.72 933.042,1445.72 962.571,1445.72 933.042,1445.72 
  "/>
<path clip-path="url(#clip4702)" d="
M962.571 1440.98 L962.571 1445.72 L992.1 1445.72 L992.1 1440.98 L962.571 1440.98 L962.571 1440.98  Z
  " fill="#009af9" fill-rule="evenodd" fill-opacity="1"/>
<polyline clip-path="url(#clip4702)" style="stroke:#000000; stroke-width:4; stroke-opacity:1; fill:none" points="
  962.571,1440.98 962.571,1445.72 992.1,1445.72 992.1,1440.98 962.571,1440.98 
  "/>
<path clip-path="url(#clip4702)" d="
M992.1 1445.72 L992.1 1445.72 L1021.63 1445.72 L1021.63 1445.72 L992.1 1445.72 L992.1 1445.72  Z
  " fill="#009af9" fill-rule="evenodd" fill-opacity="1"/>
<polyline clip-path="url(#clip4702)" style="stroke:#000000; stroke-width:4; stroke-opacity:1; fill:none" points="
  992.1,1445.72 992.1,1445.72 1021.63,1445.72 992.1,1445.72 
  "/>
<path clip-path="url(#clip4702)" d="
M1021.63 1445.72 L1021.63 1445.72 L1051.16 1445.72 L1051.16 1445.72 L1021.63 1445.72 L1021.63 1445.72  Z
  " fill="#009af9" fill-rule="evenodd" fill-opacity="1"/>
<polyline clip-path="url(#clip4702)" style="stroke:#000000; stroke-width:4; stroke-opacity:1; fill:none" points="
  1021.63,1445.72 1021.63,1445.72 1051.16,1445.72 1021.63,1445.72 
  "/>
<path clip-path="url(#clip4702)" d="
M1051.16 1445.72 L1051.16 1445.72 L1080.69 1445.72 L1080.69 1445.72 L1051.16 1445.72 L1051.16 1445.72  Z
  " fill="#009af9" fill-rule="evenodd" fill-opacity="1"/>
<polyline clip-path="url(#clip4702)" style="stroke:#000000; stroke-width:4; stroke-opacity:1; fill:none" points="
  1051.16,1445.72 1051.16,1445.72 1080.69,1445.72 1051.16,1445.72 
  "/>
<path clip-path="url(#clip4702)" d="
M1080.69 1445.72 L1080.69 1445.72 L1110.22 1445.72 L1110.22 1445.72 L1080.69 1445.72 L1080.69 1445.72  Z
  " fill="#009af9" fill-rule="evenodd" fill-opacity="1"/>
<polyline clip-path="url(#clip4702)" style="stroke:#000000; stroke-width:4; stroke-opacity:1; fill:none" points="
  1080.69,1445.72 1080.69,1445.72 1110.22,1445.72 1080.69,1445.72 
  "/>
<path clip-path="url(#clip4702)" d="
M1110.22 1440.98 L1110.22 1445.72 L1139.74 1445.72 L1139.74 1440.98 L1110.22 1440.98 L1110.22 1440.98  Z
  " fill="#009af9" fill-rule="evenodd" fill-opacity="1"/>
<polyline clip-path="url(#clip4702)" style="stroke:#000000; stroke-width:4; stroke-opacity:1; fill:none" points="
  1110.22,1440.98 1110.22,1445.72 1139.74,1445.72 1139.74,1440.98 1110.22,1440.98 
  "/>
<path clip-path="url(#clip4702)" d="
M1139.74 1445.72 L1139.74 1445.72 L1169.27 1445.72 L1169.27 1445.72 L1139.74 1445.72 L1139.74 1445.72  Z
  " fill="#009af9" fill-rule="evenodd" fill-opacity="1"/>
<polyline clip-path="url(#clip4702)" style="stroke:#000000; stroke-width:4; stroke-opacity:1; fill:none" points="
  1139.74,1445.72 1139.74,1445.72 1169.27,1445.72 1139.74,1445.72 
  "/>
<path clip-path="url(#clip4702)" d="
M1169.27 1440.98 L1169.27 1445.72 L1198.8 1445.72 L1198.8 1440.98 L1169.27 1440.98 L1169.27 1440.98  Z
  " fill="#009af9" fill-rule="evenodd" fill-opacity="1"/>
<polyline clip-path="url(#clip4702)" style="stroke:#000000; stroke-width:4; stroke-opacity:1; fill:none" points="
  1169.27,1440.98 1169.27,1445.72 1198.8,1445.72 1198.8,1440.98 1169.27,1440.98 
  "/>
<path clip-path="url(#clip4702)" d="
M1198.8 1440.98 L1198.8 1445.72 L1228.33 1445.72 L1228.33 1440.98 L1198.8 1440.98 L1198.8 1440.98  Z
  " fill="#009af9" fill-rule="evenodd" fill-opacity="1"/>
<polyline clip-path="url(#clip4702)" style="stroke:#000000; stroke-width:4; stroke-opacity:1; fill:none" points="
  1198.8,1440.98 1198.8,1445.72 1228.33,1445.72 1228.33,1440.98 1198.8,1440.98 
  "/>
<path clip-path="url(#clip4702)" d="
M1228.33 1445.72 L1228.33 1445.72 L1257.86 1445.72 L1257.86 1445.72 L1228.33 1445.72 L1228.33 1445.72  Z
  " fill="#009af9" fill-rule="evenodd" fill-opacity="1"/>
<polyline clip-path="url(#clip4702)" style="stroke:#000000; stroke-width:4; stroke-opacity:1; fill:none" points="
  1228.33,1445.72 1228.33,1445.72 1257.86,1445.72 1228.33,1445.72 
  "/>
<path clip-path="url(#clip4702)" d="
M1257.86 1445.72 L1257.86 1445.72 L1287.39 1445.72 L1287.39 1445.72 L1257.86 1445.72 L1257.86 1445.72  Z
  " fill="#009af9" fill-rule="evenodd" fill-opacity="1"/>
<polyline clip-path="url(#clip4702)" style="stroke:#000000; stroke-width:4; stroke-opacity:1; fill:none" points="
  1257.86,1445.72 1257.86,1445.72 1287.39,1445.72 1257.86,1445.72 
  "/>
<path clip-path="url(#clip4702)" d="
M1287.39 1445.72 L1287.39 1445.72 L1316.92 1445.72 L1316.92 1445.72 L1287.39 1445.72 L1287.39 1445.72  Z
  " fill="#009af9" fill-rule="evenodd" fill-opacity="1"/>
<polyline clip-path="url(#clip4702)" style="stroke:#000000; stroke-width:4; stroke-opacity:1; fill:none" points="
  1287.39,1445.72 1287.39,1445.72 1316.92,1445.72 1287.39,1445.72 
  "/>
<path clip-path="url(#clip4702)" d="
M1316.92 1445.72 L1316.92 1445.72 L1346.45 1445.72 L1346.45 1445.72 L1316.92 1445.72 L1316.92 1445.72  Z
  " fill="#009af9" fill-rule="evenodd" fill-opacity="1"/>
<polyline clip-path="url(#clip4702)" style="stroke:#000000; stroke-width:4; stroke-opacity:1; fill:none" points="
  1316.92,1445.72 1316.92,1445.72 1346.45,1445.72 1316.92,1445.72 
  "/>
<path clip-path="url(#clip4702)" d="
M1346.45 1445.72 L1346.45 1445.72 L1375.98 1445.72 L1375.98 1445.72 L1346.45 1445.72 L1346.45 1445.72  Z
  " fill="#009af9" fill-rule="evenodd" fill-opacity="1"/>
<polyline clip-path="url(#clip4702)" style="stroke:#000000; stroke-width:4; stroke-opacity:1; fill:none" points="
  1346.45,1445.72 1346.45,1445.72 1375.98,1445.72 1346.45,1445.72 
  "/>
<path clip-path="url(#clip4702)" d="
M1375.98 1440.98 L1375.98 1445.72 L1405.5 1445.72 L1405.5 1440.98 L1375.98 1440.98 L1375.98 1440.98  Z
  " fill="#009af9" fill-rule="evenodd" fill-opacity="1"/>
<polyline clip-path="url(#clip4702)" style="stroke:#000000; stroke-width:4; stroke-opacity:1; fill:none" points="
  1375.98,1440.98 1375.98,1445.72 1405.5,1445.72 1405.5,1440.98 1375.98,1440.98 
  "/>
<path clip-path="url(#clip4702)" d="
M1405.5 1445.72 L1405.5 1445.72 L1435.03 1445.72 L1435.03 1445.72 L1405.5 1445.72 L1405.5 1445.72  Z
  " fill="#009af9" fill-rule="evenodd" fill-opacity="1"/>
<polyline clip-path="url(#clip4702)" style="stroke:#000000; stroke-width:4; stroke-opacity:1; fill:none" points="
  1405.5,1445.72 1405.5,1445.72 1435.03,1445.72 1405.5,1445.72 
  "/>
<path clip-path="url(#clip4702)" d="
M1435.03 1445.72 L1435.03 1445.72 L1464.56 1445.72 L1464.56 1445.72 L1435.03 1445.72 L1435.03 1445.72  Z
  " fill="#009af9" fill-rule="evenodd" fill-opacity="1"/>
<polyline clip-path="url(#clip4702)" style="stroke:#000000; stroke-width:4; stroke-opacity:1; fill:none" points="
  1435.03,1445.72 1435.03,1445.72 1464.56,1445.72 1435.03,1445.72 
  "/>
<path clip-path="url(#clip4702)" d="
M1464.56 1445.72 L1464.56 1445.72 L1494.09 1445.72 L1494.09 1445.72 L1464.56 1445.72 L1464.56 1445.72  Z
  " fill="#009af9" fill-rule="evenodd" fill-opacity="1"/>
<polyline clip-path="url(#clip4702)" style="stroke:#000000; stroke-width:4; stroke-opacity:1; fill:none" points="
  1464.56,1445.72 1464.56,1445.72 1494.09,1445.72 1464.56,1445.72 
  "/>
<path clip-path="url(#clip4702)" d="
M1494.09 1445.72 L1494.09 1445.72 L1523.62 1445.72 L1523.62 1445.72 L1494.09 1445.72 L1494.09 1445.72  Z
  " fill="#009af9" fill-rule="evenodd" fill-opacity="1"/>
<polyline clip-path="url(#clip4702)" style="stroke:#000000; stroke-width:4; stroke-opacity:1; fill:none" points="
  1494.09,1445.72 1494.09,1445.72 1523.62,1445.72 1494.09,1445.72 
  "/>
<path clip-path="url(#clip4702)" d="
M1523.62 1445.72 L1523.62 1445.72 L1553.15 1445.72 L1553.15 1445.72 L1523.62 1445.72 L1523.62 1445.72  Z
  " fill="#009af9" fill-rule="evenodd" fill-opacity="1"/>
<polyline clip-path="url(#clip4702)" style="stroke:#000000; stroke-width:4; stroke-opacity:1; fill:none" points="
  1523.62,1445.72 1523.62,1445.72 1553.15,1445.72 1523.62,1445.72 
  "/>
<path clip-path="url(#clip4702)" d="
M1553.15 1440.98 L1553.15 1445.72 L1582.68 1445.72 L1582.68 1440.98 L1553.15 1440.98 L1553.15 1440.98  Z
  " fill="#009af9" fill-rule="evenodd" fill-opacity="1"/>
<polyline clip-path="url(#clip4702)" style="stroke:#000000; stroke-width:4; stroke-opacity:1; fill:none" points="
  1553.15,1440.98 1553.15,1445.72 1582.68,1445.72 1582.68,1440.98 1553.15,1440.98 
  "/>
<path clip-path="url(#clip4702)" d="
M1582.68 1445.72 L1582.68 1445.72 L1612.21 1445.72 L1612.21 1445.72 L1582.68 1445.72 L1582.68 1445.72  Z
  " fill="#009af9" fill-rule="evenodd" fill-opacity="1"/>
<polyline clip-path="url(#clip4702)" style="stroke:#000000; stroke-width:4; stroke-opacity:1; fill:none" points="
  1582.68,1445.72 1582.68,1445.72 1612.21,1445.72 1582.68,1445.72 
  "/>
<path clip-path="url(#clip4702)" d="
M1612.21 1445.72 L1612.21 1445.72 L1641.74 1445.72 L1641.74 1445.72 L1612.21 1445.72 L1612.21 1445.72  Z
  " fill="#009af9" fill-rule="evenodd" fill-opacity="1"/>
<polyline clip-path="url(#clip4702)" style="stroke:#000000; stroke-width:4; stroke-opacity:1; fill:none" points="
  1612.21,1445.72 1612.21,1445.72 1641.74,1445.72 1612.21,1445.72 
  "/>
<path clip-path="url(#clip4702)" d="
M1641.74 1445.72 L1641.74 1445.72 L1671.26 1445.72 L1671.26 1445.72 L1641.74 1445.72 L1641.74 1445.72  Z
  " fill="#009af9" fill-rule="evenodd" fill-opacity="1"/>
<polyline clip-path="url(#clip4702)" style="stroke:#000000; stroke-width:4; stroke-opacity:1; fill:none" points="
  1641.74,1445.72 1641.74,1445.72 1671.26,1445.72 1641.74,1445.72 
  "/>
<path clip-path="url(#clip4702)" d="
M1671.26 1445.72 L1671.26 1445.72 L1700.79 1445.72 L1700.79 1445.72 L1671.26 1445.72 L1671.26 1445.72  Z
  " fill="#009af9" fill-rule="evenodd" fill-opacity="1"/>
<polyline clip-path="url(#clip4702)" style="stroke:#000000; stroke-width:4; stroke-opacity:1; fill:none" points="
  1671.26,1445.72 1671.26,1445.72 1700.79,1445.72 1671.26,1445.72 
  "/>
<path clip-path="url(#clip4702)" d="
M1700.79 1445.72 L1700.79 1445.72 L1730.32 1445.72 L1730.32 1445.72 L1700.79 1445.72 L1700.79 1445.72  Z
  " fill="#009af9" fill-rule="evenodd" fill-opacity="1"/>
<polyline clip-path="url(#clip4702)" style="stroke:#000000; stroke-width:4; stroke-opacity:1; fill:none" points="
  1700.79,1445.72 1700.79,1445.72 1730.32,1445.72 1700.79,1445.72 
  "/>
<path clip-path="url(#clip4702)" d="
M1730.32 1445.72 L1730.32 1445.72 L1759.85 1445.72 L1759.85 1445.72 L1730.32 1445.72 L1730.32 1445.72  Z
  " fill="#009af9" fill-rule="evenodd" fill-opacity="1"/>
<polyline clip-path="url(#clip4702)" style="stroke:#000000; stroke-width:4; stroke-opacity:1; fill:none" points="
  1730.32,1445.72 1730.32,1445.72 1759.85,1445.72 1730.32,1445.72 
  "/>
<path clip-path="url(#clip4702)" d="
M1759.85 1445.72 L1759.85 1445.72 L1789.38 1445.72 L1789.38 1445.72 L1759.85 1445.72 L1759.85 1445.72  Z
  " fill="#009af9" fill-rule="evenodd" fill-opacity="1"/>
<polyline clip-path="url(#clip4702)" style="stroke:#000000; stroke-width:4; stroke-opacity:1; fill:none" points="
  1759.85,1445.72 1759.85,1445.72 1789.38,1445.72 1759.85,1445.72 
  "/>
<path clip-path="url(#clip4702)" d="
M1789.38 1440.98 L1789.38 1445.72 L1818.91 1445.72 L1818.91 1440.98 L1789.38 1440.98 L1789.38 1440.98  Z
  " fill="#009af9" fill-rule="evenodd" fill-opacity="1"/>
<polyline clip-path="url(#clip4702)" style="stroke:#000000; stroke-width:4; stroke-opacity:1; fill:none" points="
  1789.38,1440.98 1789.38,1445.72 1818.91,1445.72 1818.91,1440.98 1789.38,1440.98 
  "/>
<path clip-path="url(#clip4702)" d="
M1818.91 1445.72 L1818.91 1445.72 L1848.44 1445.72 L1848.44 1445.72 L1818.91 1445.72 L1818.91 1445.72  Z
  " fill="#009af9" fill-rule="evenodd" fill-opacity="1"/>
<polyline clip-path="url(#clip4702)" style="stroke:#000000; stroke-width:4; stroke-opacity:1; fill:none" points="
  1818.91,1445.72 1818.91,1445.72 1848.44,1445.72 1818.91,1445.72 
  "/>
<path clip-path="url(#clip4702)" d="
M1848.44 1445.72 L1848.44 1445.72 L1877.97 1445.72 L1877.97 1445.72 L1848.44 1445.72 L1848.44 1445.72  Z
  " fill="#009af9" fill-rule="evenodd" fill-opacity="1"/>
<polyline clip-path="url(#clip4702)" style="stroke:#000000; stroke-width:4; stroke-opacity:1; fill:none" points="
  1848.44,1445.72 1848.44,1445.72 1877.97,1445.72 1848.44,1445.72 
  "/>
<path clip-path="url(#clip4702)" d="
M1877.97 1445.72 L1877.97 1445.72 L1907.5 1445.72 L1907.5 1445.72 L1877.97 1445.72 L1877.97 1445.72  Z
  " fill="#009af9" fill-rule="evenodd" fill-opacity="1"/>
<polyline clip-path="url(#clip4702)" style="stroke:#000000; stroke-width:4; stroke-opacity:1; fill:none" points="
  1877.97,1445.72 1877.97,1445.72 1907.5,1445.72 1877.97,1445.72 
  "/>
<path clip-path="url(#clip4702)" d="
M1907.5 1445.72 L1907.5 1445.72 L1937.02 1445.72 L1937.02 1445.72 L1907.5 1445.72 L1907.5 1445.72  Z
  " fill="#009af9" fill-rule="evenodd" fill-opacity="1"/>
<polyline clip-path="url(#clip4702)" style="stroke:#000000; stroke-width:4; stroke-opacity:1; fill:none" points="
  1907.5,1445.72 1907.5,1445.72 1937.02,1445.72 1907.5,1445.72 
  "/>
<path clip-path="url(#clip4702)" d="
M1937.02 1445.72 L1937.02 1445.72 L1966.55 1445.72 L1966.55 1445.72 L1937.02 1445.72 L1937.02 1445.72  Z
  " fill="#009af9" fill-rule="evenodd" fill-opacity="1"/>
<polyline clip-path="url(#clip4702)" style="stroke:#000000; stroke-width:4; stroke-opacity:1; fill:none" points="
  1937.02,1445.72 1937.02,1445.72 1966.55,1445.72 1937.02,1445.72 
  "/>
<path clip-path="url(#clip4702)" d="
M1966.55 1445.72 L1966.55 1445.72 L1996.08 1445.72 L1996.08 1445.72 L1966.55 1445.72 L1966.55 1445.72  Z
  " fill="#009af9" fill-rule="evenodd" fill-opacity="1"/>
<polyline clip-path="url(#clip4702)" style="stroke:#000000; stroke-width:4; stroke-opacity:1; fill:none" points="
  1966.55,1445.72 1966.55,1445.72 1996.08,1445.72 1966.55,1445.72 
  "/>
<path clip-path="url(#clip4702)" d="
M1996.08 1445.72 L1996.08 1445.72 L2025.61 1445.72 L2025.61 1445.72 L1996.08 1445.72 L1996.08 1445.72  Z
  " fill="#009af9" fill-rule="evenodd" fill-opacity="1"/>
<polyline clip-path="url(#clip4702)" style="stroke:#000000; stroke-width:4; stroke-opacity:1; fill:none" points="
  1996.08,1445.72 1996.08,1445.72 2025.61,1445.72 1996.08,1445.72 
  "/>
<path clip-path="url(#clip4702)" d="
M2025.61 1445.72 L2025.61 1445.72 L2055.14 1445.72 L2055.14 1445.72 L2025.61 1445.72 L2025.61 1445.72  Z
  " fill="#009af9" fill-rule="evenodd" fill-opacity="1"/>
<polyline clip-path="url(#clip4702)" style="stroke:#000000; stroke-width:4; stroke-opacity:1; fill:none" points="
  2025.61,1445.72 2025.61,1445.72 2055.14,1445.72 2025.61,1445.72 
  "/>
<path clip-path="url(#clip4702)" d="
M2055.14 1445.72 L2055.14 1445.72 L2084.67 1445.72 L2084.67 1445.72 L2055.14 1445.72 L2055.14 1445.72  Z
  " fill="#009af9" fill-rule="evenodd" fill-opacity="1"/>
<polyline clip-path="url(#clip4702)" style="stroke:#000000; stroke-width:4; stroke-opacity:1; fill:none" points="
  2055.14,1445.72 2055.14,1445.72 2084.67,1445.72 2055.14,1445.72 
  "/>
<path clip-path="url(#clip4702)" d="
M2084.67 1445.72 L2084.67 1445.72 L2114.2 1445.72 L2114.2 1445.72 L2084.67 1445.72 L2084.67 1445.72  Z
  " fill="#009af9" fill-rule="evenodd" fill-opacity="1"/>
<polyline clip-path="url(#clip4702)" style="stroke:#000000; stroke-width:4; stroke-opacity:1; fill:none" points="
  2084.67,1445.72 2084.67,1445.72 2114.2,1445.72 2084.67,1445.72 
  "/>
<path clip-path="url(#clip4702)" d="
M2114.2 1445.72 L2114.2 1445.72 L2143.73 1445.72 L2143.73 1445.72 L2114.2 1445.72 L2114.2 1445.72  Z
  " fill="#009af9" fill-rule="evenodd" fill-opacity="1"/>
<polyline clip-path="url(#clip4702)" style="stroke:#000000; stroke-width:4; stroke-opacity:1; fill:none" points="
  2114.2,1445.72 2114.2,1445.72 2143.73,1445.72 2114.2,1445.72 
  "/>
<path clip-path="url(#clip4702)" d="
M2143.73 1445.72 L2143.73 1445.72 L2173.26 1445.72 L2173.26 1445.72 L2143.73 1445.72 L2143.73 1445.72  Z
  " fill="#009af9" fill-rule="evenodd" fill-opacity="1"/>
<polyline clip-path="url(#clip4702)" style="stroke:#000000; stroke-width:4; stroke-opacity:1; fill:none" points="
  2143.73,1445.72 2143.73,1445.72 2173.26,1445.72 2143.73,1445.72 
  "/>
<path clip-path="url(#clip4702)" d="
M2173.26 1445.72 L2173.26 1445.72 L2202.78 1445.72 L2202.78 1445.72 L2173.26 1445.72 L2173.26 1445.72  Z
  " fill="#009af9" fill-rule="evenodd" fill-opacity="1"/>
<polyline clip-path="url(#clip4702)" style="stroke:#000000; stroke-width:4; stroke-opacity:1; fill:none" points="
  2173.26,1445.72 2173.26,1445.72 2202.78,1445.72 2173.26,1445.72 
  "/>
<path clip-path="url(#clip4702)" d="
M2202.78 1436.25 L2202.78 1445.72 L2232.31 1445.72 L2232.31 1436.25 L2202.78 1436.25 L2202.78 1436.25  Z
  " fill="#009af9" fill-rule="evenodd" fill-opacity="1"/>
<polyline clip-path="url(#clip4702)" style="stroke:#000000; stroke-width:4; stroke-opacity:1; fill:none" points="
  2202.78,1436.25 2202.78,1445.72 2232.31,1445.72 2232.31,1436.25 2202.78,1436.25 
  "/>
<path clip-path="url(#clip4700)" d="
M1857.49 251.724 L2280.76 251.724 L2280.76 130.764 L1857.49 130.764  Z
  " fill="#ffffff" fill-rule="evenodd" fill-opacity="1"/>
<polyline clip-path="url(#clip4700)" style="stroke:#000000; stroke-width:4; stroke-opacity:1; fill:none" points="
  1857.49,251.724 2280.76,251.724 2280.76,130.764 1857.49,130.764 1857.49,251.724 
  "/>
<path clip-path="url(#clip4700)" d="
M1881.49 215.436 L2025.49 215.436 L2025.49 167.052 L1881.49 167.052 L1881.49 215.436  Z
  " fill="#009af9" fill-rule="evenodd" fill-opacity="1"/>
<polyline clip-path="url(#clip4700)" style="stroke:#000000; stroke-width:4; stroke-opacity:1; fill:none" points="
  1881.49,215.436 2025.49,215.436 2025.49,167.052 1881.49,167.052 1881.49,215.436 
  "/>
<path clip-path="url(#clip4700)" d="M 0 0 M2049.49 172.506 L2059.31 172.506 L2059.31 175.816 L2053.75 175.816 L2053.75 211.464 L2059.31 211.464 L2059.31 214.774 L2049.49 214.774 L2049.49 172.506 Z" fill="#000000" fill-rule="evenodd" fill-opacity="1" /><path clip-path="url(#clip4700)" d="M 0 0 M2067.8 173.964 L2067.8 186.811 L2063.87 186.811 L2063.87 173.964 L2067.8 173.964 M2076.55 173.964 L2076.55 186.811 L2072.62 186.811 L2072.62 173.964 L2076.55 173.964 Z" fill="#000000" fill-rule="evenodd" fill-opacity="1" /><path clip-path="url(#clip4700)" d="M 0 0 M2092.8 195.492 Q2087.64 195.492 2085.65 196.672 Q2083.66 197.853 2083.66 200.7 Q2083.66 202.969 2085.14 204.311 Q2086.65 205.631 2089.22 205.631 Q2092.76 205.631 2094.89 203.131 Q2097.04 200.607 2097.04 196.441 L2097.04 195.492 L2092.8 195.492 M2101.3 193.733 L2101.3 208.524 L2097.04 208.524 L2097.04 204.589 Q2095.58 206.95 2093.4 208.084 Q2091.23 209.195 2088.08 209.195 Q2084.1 209.195 2081.74 206.973 Q2079.4 204.728 2079.4 200.978 Q2079.4 196.603 2082.32 194.381 Q2085.26 192.158 2091.07 192.158 L2097.04 192.158 L2097.04 191.742 Q2097.04 188.802 2095.09 187.205 Q2093.17 185.584 2089.68 185.584 Q2087.46 185.584 2085.35 186.117 Q2083.24 186.649 2081.3 187.714 L2081.3 183.779 Q2083.64 182.876 2085.84 182.436 Q2088.03 181.973 2090.12 181.973 Q2095.74 181.973 2098.52 184.89 Q2101.3 187.807 2101.3 193.733 Z" fill="#000000" fill-rule="evenodd" fill-opacity="1" /><path clip-path="url(#clip4700)" d="M 0 0 M2124.42 183.594 L2124.42 187.575 Q2122.62 186.58 2120.79 186.094 Q2118.98 185.584 2117.13 185.584 Q2112.99 185.584 2110.7 188.223 Q2108.4 190.839 2108.4 195.584 Q2108.4 200.33 2110.7 202.969 Q2112.99 205.584 2117.13 205.584 Q2118.98 205.584 2120.79 205.098 Q2122.62 204.589 2124.42 203.594 L2124.42 207.529 Q2122.64 208.362 2120.72 208.779 Q2118.82 209.195 2116.67 209.195 Q2110.81 209.195 2107.36 205.515 Q2103.91 201.834 2103.91 195.584 Q2103.91 189.242 2107.39 185.608 Q2110.88 181.973 2116.95 181.973 Q2118.91 181.973 2120.79 182.39 Q2122.66 182.783 2124.42 183.594 Z" fill="#000000" fill-rule="evenodd" fill-opacity="1" /><path clip-path="url(#clip4700)" d="M 0 0 M2133.1 175.237 L2133.1 182.598 L2141.88 182.598 L2141.88 185.908 L2133.1 185.908 L2133.1 199.982 Q2133.1 203.154 2133.96 204.057 Q2134.84 204.959 2137.5 204.959 L2141.88 204.959 L2141.88 208.524 L2137.5 208.524 Q2132.57 208.524 2130.7 206.695 Q2128.82 204.844 2128.82 199.982 L2128.82 185.908 L2125.7 185.908 L2125.7 182.598 L2128.82 182.598 L2128.82 175.237 L2133.1 175.237 Z" fill="#000000" fill-rule="evenodd" fill-opacity="1" /><path clip-path="url(#clip4700)" d="M 0 0 M2145.9 198.293 L2145.9 182.598 L2150.16 182.598 L2150.16 198.131 Q2150.16 201.811 2151.6 203.663 Q2153.03 205.492 2155.9 205.492 Q2159.35 205.492 2161.34 203.293 Q2163.36 201.094 2163.36 197.297 L2163.36 182.598 L2167.62 182.598 L2167.62 208.524 L2163.36 208.524 L2163.36 204.543 Q2161.81 206.904 2159.75 208.061 Q2157.71 209.195 2155 209.195 Q2150.53 209.195 2148.22 206.418 Q2145.9 203.64 2145.9 198.293 M2156.62 181.973 L2156.62 181.973 Z" fill="#000000" fill-rule="evenodd" fill-opacity="1" /><path clip-path="url(#clip4700)" d="M 0 0 M2183.87 195.492 Q2178.71 195.492 2176.71 196.672 Q2174.72 197.853 2174.72 200.7 Q2174.72 202.969 2176.21 204.311 Q2177.71 205.631 2180.28 205.631 Q2183.82 205.631 2185.95 203.131 Q2188.1 200.607 2188.1 196.441 L2188.1 195.492 L2183.87 195.492 M2192.36 193.733 L2192.36 208.524 L2188.1 208.524 L2188.1 204.589 Q2186.65 206.95 2184.47 208.084 Q2182.29 209.195 2179.15 209.195 Q2175.16 209.195 2172.8 206.973 Q2170.46 204.728 2170.46 200.978 Q2170.46 196.603 2173.38 194.381 Q2176.32 192.158 2182.13 192.158 L2188.1 192.158 L2188.1 191.742 Q2188.1 188.802 2186.16 187.205 Q2184.24 185.584 2180.74 185.584 Q2178.52 185.584 2176.41 186.117 Q2174.31 186.649 2172.36 187.714 L2172.36 183.779 Q2174.7 182.876 2176.9 182.436 Q2179.1 181.973 2181.18 181.973 Q2186.81 181.973 2189.58 184.89 Q2192.36 187.807 2192.36 193.733 Z" fill="#000000" fill-rule="evenodd" fill-opacity="1" /><path clip-path="url(#clip4700)" d="M 0 0 M2196.83 172.506 L2201.09 172.506 L2201.09 208.524 L2196.83 208.524 L2196.83 172.506 Z" fill="#000000" fill-rule="evenodd" fill-opacity="1" /><path clip-path="url(#clip4700)" d="M 0 0 M2209.58 173.964 L2209.58 186.811 L2205.65 186.811 L2205.65 173.964 L2209.58 173.964 M2218.33 173.964 L2218.33 186.811 L2214.4 186.811 L2214.4 173.964 L2218.33 173.964 Z" fill="#000000" fill-rule="evenodd" fill-opacity="1" /><path clip-path="url(#clip4700)" d="M 0 0 M2232.76 172.506 L2232.76 214.774 L2222.94 214.774 L2222.94 211.464 L2228.47 211.464 L2228.47 175.816 L2222.94 175.816 L2222.94 172.506 L2232.76 172.506 Z" fill="#000000" fill-rule="evenodd" fill-opacity="1" /></svg>
