<?xml version="1.0" encoding="utf-8"?>
<svg xmlns="http://www.w3.org/2000/svg" xmlns:xlink="http://www.w3.org/1999/xlink" width="600" height="400" viewBox="0 0 2400 1600">
<defs>
  <clipPath id="clip5100">
    <rect x="0" y="0" width="2400" height="1600"/>
  </clipPath>
</defs>
<path clip-path="url(#clip5100)" d="
M0 1600 L2400 1600 L2400 0 L0 0  Z
  " fill="#ffffff" fill-rule="evenodd" fill-opacity="1"/>
<defs>
  <clipPath id="clip5101">
    <rect x="480" y="0" width="1681" height="1600"/>
  </clipPath>
</defs>
<path clip-path="url(#clip5100)" d="
M112.177 1486.45 L2352.76 1486.45 L2352.76 47.2441 L112.177 47.2441  Z
  " fill="#ffffff" fill-rule="evenodd" fill-opacity="1"/>
<defs>
  <clipPath id="clip5102">
    <rect x="112" y="47" width="2242" height="1440"/>
  </clipPath>
</defs>
<polyline clip-path="url(#clip5102)" style="stroke:#000000; stroke-width:2; stroke-opacity:0.1; fill:none" points="
  174.986,1486.45 174.986,47.2441 
  "/>
<polyline clip-path="url(#clip5102)" style="stroke:#000000; stroke-width:2; stroke-opacity:0.1; fill:none" points="
  779.26,1486.45 779.26,47.2441 
  "/>
<polyline clip-path="url(#clip5102)" style="stroke:#000000; stroke-width:2; stroke-opacity:0.1; fill:none" points="
  1383.54,1486.45 1383.54,47.2441 
  "/>
<polyline clip-path="url(#clip5102)" style="stroke:#000000; stroke-width:2; stroke-opacity:0.1; fill:none" points="
  1987.81,1486.45 1987.81,47.2441 
  "/>
<polyline clip-path="url(#clip5102)" style="stroke:#000000; stroke-width:2; stroke-opacity:0.1; fill:none" points="
  112.177,1445.72 2352.76,1445.72 
  "/>
<polyline clip-path="url(#clip5102)" style="stroke:#000000; stroke-width:2; stroke-opacity:0.1; fill:none" points="
  112.177,1219.43 2352.76,1219.43 
  "/>
<polyline clip-path="url(#clip5102)" style="stroke:#000000; stroke-width:2; stroke-opacity:0.1; fill:none" points="
  112.177,993.136 2352.76,993.136 
  "/>
<polyline clip-path="url(#clip5102)" style="stroke:#000000; stroke-width:2; stroke-opacity:0.1; fill:none" points="
  112.177,766.846 2352.76,766.846 
  "/>
<polyline clip-path="url(#clip5102)" style="stroke:#000000; stroke-width:2; stroke-opacity:0.1; fill:none" points="
  112.177,540.556 2352.76,540.556 
  "/>
<polyline clip-path="url(#clip5102)" style="stroke:#000000; stroke-width:2; stroke-opacity:0.1; fill:none" points="
  112.177,314.266 2352.76,314.266 
  "/>
<polyline clip-path="url(#clip5102)" style="stroke:#000000; stroke-width:2; stroke-opacity:0.1; fill:none" points="
  112.177,87.9763 2352.76,87.9763 
  "/>
<polyline clip-path="url(#clip5100)" style="stroke:#000000; stroke-width:4; stroke-opacity:1; fill:none" points="
  112.177,1486.45 2352.76,1486.45 
  "/>
<polyline clip-path="url(#clip5100)" style="stroke:#000000; stroke-width:4; stroke-opacity:1; fill:none" points="
  112.177,1486.45 112.177,47.2441 
  "/>
<polyline clip-path="url(#clip5100)" style="stroke:#000000; stroke-width:4; stroke-opacity:1; fill:none" points="
  174.986,1486.45 174.986,1469.18 
  "/>
<polyline clip-path="url(#clip5100)" style="stroke:#000000; stroke-width:4; stroke-opacity:1; fill:none" points="
  779.26,1486.45 779.26,1469.18 
  "/>
<polyline clip-path="url(#clip5100)" style="stroke:#000000; stroke-width:4; stroke-opacity:1; fill:none" points="
  1383.54,1486.45 1383.54,1469.18 
  "/>
<polyline clip-path="url(#clip5100)" style="stroke:#000000; stroke-width:4; stroke-opacity:1; fill:none" points="
  1987.81,1486.45 1987.81,1469.18 
  "/>
<polyline clip-path="url(#clip5100)" style="stroke:#000000; stroke-width:4; stroke-opacity:1; fill:none" points="
  112.177,1445.72 139.064,1445.72 
  "/>
<polyline clip-path="url(#clip5100)" style="stroke:#000000; stroke-width:4; stroke-opacity:1; fill:none" points="
  112.177,1219.43 139.064,1219.43 
  "/>
<polyline clip-path="url(#clip5100)" style="stroke:#000000; stroke-width:4; stroke-opacity:1; fill:none" points="
  112.177,993.136 139.064,993.136 
  "/>
<polyline clip-path="url(#clip5100)" style="stroke:#000000; stroke-width:4; stroke-opacity:1; fill:none" points="
  112.177,766.846 139.064,766.846 
  "/>
<polyline clip-path="url(#clip5100)" style="stroke:#000000; stroke-width:4; stroke-opacity:1; fill:none" points="
  112.177,540.556 139.064,540.556 
  "/>
<polyline clip-path="url(#clip5100)" style="stroke:#000000; stroke-width:4; stroke-opacity:1; fill:none" points="
  112.177,314.266 139.064,314.266 
  "/>
<polyline clip-path="url(#clip5100)" style="stroke:#000000; stroke-width:4; stroke-opacity:1; fill:none" points="
  112.177,87.9763 139.064,87.9763 
  "/>
<path clip-path="url(#clip5100)" d="M 0 0 M174.986 1508.44 Q171.374 1508.44 169.546 1512 Q167.74 1515.55 167.74 1522.67 Q167.74 1529.78 169.546 1533.35 Q171.374 1536.89 174.986 1536.89 Q178.62 1536.89 180.425 1533.35 Q182.254 1529.78 182.254 1522.67 Q182.254 1515.55 180.425 1512 Q178.62 1508.44 174.986 1508.44 M174.986 1504.73 Q180.796 1504.73 183.851 1509.34 Q186.93 1513.92 186.93 1522.67 Q186.93 1531.4 183.851 1536.01 Q180.796 1540.59 174.986 1540.59 Q169.175 1540.59 166.097 1536.01 Q163.041 1531.4 163.041 1522.67 Q163.041 1513.92 166.097 1509.34 Q169.175 1504.73 174.986 1504.73 Z" fill="#000000" fill-rule="evenodd" fill-opacity="1" /><path clip-path="url(#clip5100)" d="M 0 0 M733.393 1535.98 L749.712 1535.98 L749.712 1539.92 L727.768 1539.92 L727.768 1535.98 Q730.43 1533.23 735.013 1528.6 Q739.619 1523.95 740.8 1522.61 Q743.045 1520.08 743.925 1518.35 Q744.828 1516.59 744.828 1514.9 Q744.828 1512.14 742.883 1510.41 Q740.962 1508.67 737.86 1508.67 Q735.661 1508.67 733.207 1509.43 Q730.777 1510.2 727.999 1511.75 L727.999 1507.03 Q730.823 1505.89 733.277 1505.31 Q735.731 1504.73 737.768 1504.73 Q743.138 1504.73 746.332 1507.42 Q749.527 1510.11 749.527 1514.6 Q749.527 1516.73 748.717 1518.65 Q747.93 1520.54 745.823 1523.14 Q745.244 1523.81 742.143 1527.03 Q739.041 1530.22 733.393 1535.98 Z" fill="#000000" fill-rule="evenodd" fill-opacity="1" /><path clip-path="url(#clip5100)" d="M 0 0 M764.781 1508.44 Q761.17 1508.44 759.342 1512 Q757.536 1515.55 757.536 1522.67 Q757.536 1529.78 759.342 1533.35 Q761.17 1536.89 764.781 1536.89 Q768.416 1536.89 770.221 1533.35 Q772.05 1529.78 772.05 1522.67 Q772.05 1515.55 770.221 1512 Q768.416 1508.44 764.781 1508.44 M764.781 1504.73 Q770.591 1504.73 773.647 1509.34 Q776.726 1513.92 776.726 1522.67 Q776.726 1531.4 773.647 1536.01 Q770.591 1540.59 764.781 1540.59 Q758.971 1540.59 755.892 1536.01 Q752.837 1531.4 752.837 1522.67 Q752.837 1513.92 755.892 1509.34 Q758.971 1504.73 764.781 1504.73 Z" fill="#000000" fill-rule="evenodd" fill-opacity="1" /><path clip-path="url(#clip5100)" d="M 0 0 M791.795 1508.44 Q788.184 1508.44 786.355 1512 Q784.55 1515.55 784.55 1522.67 Q784.55 1529.78 786.355 1533.35 Q788.184 1536.89 791.795 1536.89 Q795.429 1536.89 797.235 1533.35 Q799.064 1529.78 799.064 1522.67 Q799.064 1515.55 797.235 1512 Q795.429 1508.44 791.795 1508.44 M791.795 1504.73 Q797.605 1504.73 800.661 1509.34 Q803.739 1513.92 803.739 1522.67 Q803.739 1531.4 800.661 1536.01 Q797.605 1540.59 791.795 1540.59 Q785.985 1540.59 782.906 1536.01 Q779.851 1531.4 779.851 1522.67 Q779.851 1513.92 782.906 1509.34 Q785.985 1504.73 791.795 1504.73 Z" fill="#000000" fill-rule="evenodd" fill-opacity="1" /><path clip-path="url(#clip5100)" d="M 0 0 M818.809 1508.44 Q815.198 1508.44 813.369 1512 Q811.563 1515.55 811.563 1522.67 Q811.563 1529.78 813.369 1533.35 Q815.198 1536.89 818.809 1536.89 Q822.443 1536.89 824.249 1533.35 Q826.077 1529.78 826.077 1522.67 Q826.077 1515.55 824.249 1512 Q822.443 1508.44 818.809 1508.44 M818.809 1504.73 Q824.619 1504.73 827.674 1509.34 Q830.753 1513.92 830.753 1522.67 Q830.753 1531.4 827.674 1536.01 Q824.619 1540.59 818.809 1540.59 Q812.999 1540.59 809.92 1536.01 Q806.864 1531.4 806.864 1522.67 Q806.864 1513.92 809.92 1509.34 Q812.999 1504.73 818.809 1504.73 Z" fill="#000000" fill-rule="evenodd" fill-opacity="1" /><path clip-path="url(#clip5100)" d="M 0 0 M1346.02 1509.43 L1334.22 1527.88 L1346.02 1527.88 L1346.02 1509.43 M1344.8 1505.36 L1350.68 1505.36 L1350.68 1527.88 L1355.61 1527.88 L1355.61 1531.77 L1350.68 1531.77 L1350.68 1539.92 L1346.02 1539.92 L1346.02 1531.77 L1330.42 1531.77 L1330.42 1527.26 L1344.8 1505.36 Z" fill="#000000" fill-rule="evenodd" fill-opacity="1" /><path clip-path="url(#clip5100)" d="M 0 0 M1370.68 1508.44 Q1367.07 1508.44 1365.24 1512 Q1363.43 1515.55 1363.43 1522.67 Q1363.43 1529.78 1365.24 1533.35 Q1367.07 1536.89 1370.68 1536.89 Q1374.31 1536.89 1376.12 1533.35 Q1377.95 1529.78 1377.95 1522.67 Q1377.95 1515.55 1376.12 1512 Q1374.31 1508.44 1370.68 1508.44 M1370.68 1504.73 Q1376.49 1504.73 1379.54 1509.34 Q1382.62 1513.92 1382.62 1522.67 Q1382.62 1531.4 1379.54 1536.01 Q1376.49 1540.59 1370.68 1540.59 Q1364.87 1540.59 1361.79 1536.01 Q1358.73 1531.4 1358.73 1522.67 Q1358.73 1513.92 1361.79 1509.34 Q1364.87 1504.73 1370.68 1504.73 Z" fill="#000000" fill-rule="evenodd" fill-opacity="1" /><path clip-path="url(#clip5100)" d="M 0 0 M1397.69 1508.44 Q1394.08 1508.44 1392.25 1512 Q1390.44 1515.55 1390.44 1522.67 Q1390.44 1529.78 1392.25 1533.35 Q1394.08 1536.89 1397.69 1536.89 Q1401.32 1536.89 1403.13 1533.35 Q1404.96 1529.78 1404.96 1522.67 Q1404.96 1515.55 1403.13 1512 Q1401.32 1508.44 1397.69 1508.44 M1397.69 1504.73 Q1403.5 1504.73 1406.56 1509.34 Q1409.63 1513.92 1409.63 1522.67 Q1409.63 1531.4 1406.56 1536.01 Q1403.5 1540.59 1397.69 1540.59 Q1391.88 1540.59 1388.8 1536.01 Q1385.75 1531.4 1385.75 1522.67 Q1385.75 1513.92 1388.8 1509.34 Q1391.88 1504.73 1397.69 1504.73 Z" fill="#000000" fill-rule="evenodd" fill-opacity="1" /><path clip-path="url(#clip5100)" d="M 0 0 M1424.7 1508.44 Q1421.09 1508.44 1419.26 1512 Q1417.46 1515.55 1417.46 1522.67 Q1417.46 1529.78 1419.26 1533.35 Q1421.09 1536.89 1424.7 1536.89 Q1428.34 1536.89 1430.14 1533.35 Q1431.97 1529.78 1431.97 1522.67 Q1431.97 1515.55 1430.14 1512 Q1428.34 1508.44 1424.7 1508.44 M1424.7 1504.73 Q1430.51 1504.73 1433.57 1509.34 Q1436.65 1513.92 1436.65 1522.67 Q1436.65 1531.4 1433.57 1536.01 Q1430.51 1540.59 1424.7 1540.59 Q1418.89 1540.59 1415.82 1536.01 Q1412.76 1531.4 1412.76 1522.67 Q1412.76 1513.92 1415.82 1509.34 Q1418.89 1504.73 1424.7 1504.73 Z" fill="#000000" fill-rule="evenodd" fill-opacity="1" /><path clip-path="url(#clip5100)" d="M 0 0 M1947.69 1520.78 Q1944.55 1520.78 1942.69 1522.93 Q1940.87 1525.08 1940.87 1528.83 Q1940.87 1532.56 1942.69 1534.73 Q1944.55 1536.89 1947.69 1536.89 Q1950.84 1536.89 1952.67 1534.73 Q1954.52 1532.56 1954.52 1528.83 Q1954.52 1525.08 1952.67 1522.93 Q1950.84 1520.78 1947.69 1520.78 M1956.98 1506.12 L1956.98 1510.38 Q1955.22 1509.55 1953.41 1509.11 Q1951.63 1508.67 1949.87 1508.67 Q1945.24 1508.67 1942.79 1511.8 Q1940.36 1514.92 1940.01 1521.24 Q1941.38 1519.23 1943.44 1518.16 Q1945.5 1517.07 1947.97 1517.07 Q1953.18 1517.07 1956.19 1520.24 Q1959.22 1523.39 1959.22 1528.83 Q1959.22 1534.16 1956.07 1537.37 Q1952.93 1540.59 1947.69 1540.59 Q1941.7 1540.59 1938.53 1536.01 Q1935.36 1531.4 1935.36 1522.67 Q1935.36 1514.48 1939.25 1509.62 Q1943.13 1504.73 1949.69 1504.73 Q1951.44 1504.73 1953.23 1505.08 Q1955.03 1505.43 1956.98 1506.12 Z" fill="#000000" fill-rule="evenodd" fill-opacity="1" /><path clip-path="url(#clip5100)" d="M 0 0 M1974.29 1508.44 Q1970.68 1508.44 1968.85 1512 Q1967.05 1515.55 1967.05 1522.67 Q1967.05 1529.78 1968.85 1533.35 Q1970.68 1536.89 1974.29 1536.89 Q1977.93 1536.89 1979.73 1533.35 Q1981.56 1529.78 1981.56 1522.67 Q1981.56 1515.55 1979.73 1512 Q1977.93 1508.44 1974.29 1508.44 M1974.29 1504.73 Q1980.1 1504.73 1983.16 1509.34 Q1986.24 1513.92 1986.24 1522.67 Q1986.24 1531.4 1983.16 1536.01 Q1980.1 1540.59 1974.29 1540.59 Q1968.48 1540.59 1965.4 1536.01 Q1962.35 1531.4 1962.35 1522.67 Q1962.35 1513.92 1965.4 1509.34 Q1968.48 1504.73 1974.29 1504.73 Z" fill="#000000" fill-rule="evenodd" fill-opacity="1" /><path clip-path="url(#clip5100)" d="M 0 0 M2001.31 1508.44 Q1997.69 1508.44 1995.87 1512 Q1994.06 1515.55 1994.06 1522.67 Q1994.06 1529.78 1995.87 1533.35 Q1997.69 1536.89 2001.31 1536.89 Q2004.94 1536.89 2006.75 1533.35 Q2008.57 1529.78 2008.57 1522.67 Q2008.57 1515.55 2006.75 1512 Q2004.94 1508.44 2001.31 1508.44 M2001.31 1504.73 Q2007.12 1504.73 2010.17 1509.34 Q2013.25 1513.92 2013.25 1522.67 Q2013.25 1531.4 2010.17 1536.01 Q2007.12 1540.59 2001.31 1540.59 Q1995.5 1540.59 1992.42 1536.01 Q1989.36 1531.4 1989.36 1522.67 Q1989.36 1513.92 1992.42 1509.34 Q1995.5 1504.73 2001.31 1504.73 Z" fill="#000000" fill-rule="evenodd" fill-opacity="1" /><path clip-path="url(#clip5100)" d="M 0 0 M2028.32 1508.44 Q2024.71 1508.44 2022.88 1512 Q2021.07 1515.55 2021.07 1522.67 Q2021.07 1529.78 2022.88 1533.35 Q2024.71 1536.89 2028.32 1536.89 Q2031.95 1536.89 2033.76 1533.35 Q2035.59 1529.78 2035.59 1522.67 Q2035.59 1515.55 2033.76 1512 Q2031.95 1508.44 2028.32 1508.44 M2028.32 1504.73 Q2034.13 1504.73 2037.18 1509.34 Q2040.26 1513.92 2040.26 1522.67 Q2040.26 1531.4 2037.18 1536.01 Q2034.13 1540.59 2028.32 1540.59 Q2022.51 1540.59 2019.43 1536.01 Q2016.37 1531.4 2016.37 1522.67 Q2016.37 1513.92 2019.43 1509.34 Q2022.51 1504.73 2028.32 1504.73 Z" fill="#000000" fill-rule="evenodd" fill-opacity="1" /><path clip-path="url(#clip5100)" d="M 0 0 M76.2328 1431.51 Q72.6217 1431.51 70.793 1435.08 Q68.9875 1438.62 68.9875 1445.75 Q68.9875 1452.86 70.793 1456.42 Q72.6217 1459.96 76.2328 1459.96 Q79.867 1459.96 81.6726 1456.42 Q83.5013 1452.86 83.5013 1445.75 Q83.5013 1438.62 81.6726 1435.08 Q79.867 1431.51 76.2328 1431.51 M76.2328 1427.81 Q82.0429 1427.81 85.0985 1432.42 Q88.1772 1437 88.1772 1445.75 Q88.1772 1454.48 85.0985 1459.08 Q82.0429 1463.67 76.2328 1463.67 Q70.4226 1463.67 67.344 1459.08 Q64.2884 1454.48 64.2884 1445.75 Q64.2884 1437 67.344 1432.42 Q70.4226 1427.81 76.2328 1427.81 Z" fill="#000000" fill-rule="evenodd" fill-opacity="1" /><path clip-path="url(#clip5100)" d="M 0 0 M68.2699 1232.77 L75.9087 1232.77 L75.9087 1206.41 L67.5986 1208.07 L67.5986 1203.81 L75.8624 1202.15 L80.5383 1202.15 L80.5383 1232.77 L88.1772 1232.77 L88.1772 1236.71 L68.2699 1236.71 L68.2699 1232.77 Z" fill="#000000" fill-rule="evenodd" fill-opacity="1" /><path clip-path="url(#clip5100)" d="M 0 0 M71.8578 1006.48 L88.1772 1006.48 L88.1772 1010.42 L66.2328 1010.42 L66.2328 1006.48 Q68.8949 1003.73 73.4782 999.097 Q78.0846 994.444 79.2652 993.101 Q81.5105 990.578 82.3902 988.842 Q83.2929 987.083 83.2929 985.393 Q83.2929 982.638 81.3485 980.902 Q79.4272 979.166 76.3254 979.166 Q74.1263 979.166 71.6726 979.93 Q69.2421 980.694 66.4643 982.245 L66.4643 977.523 Q69.2884 976.388 71.7421 975.81 Q74.1958 975.231 76.2328 975.231 Q81.6031 975.231 84.7976 977.916 Q87.992 980.601 87.992 985.092 Q87.992 987.222 87.1818 989.143 Q86.3948 991.041 84.2883 993.634 Q83.7096 994.305 80.6078 997.522 Q77.5059 1000.72 71.8578 1006.48 Z" fill="#000000" fill-rule="evenodd" fill-opacity="1" /><path clip-path="url(#clip5100)" d="M 0 0 M81.0476 765.492 Q84.404 766.209 86.279 768.478 Q88.1772 770.746 88.1772 774.08 Q88.1772 779.195 84.6587 781.996 Q81.1402 784.797 74.6587 784.797 Q72.4828 784.797 70.168 784.357 Q67.8764 783.941 65.4227 783.084 L65.4227 778.57 Q67.3671 779.705 69.6819 780.283 Q71.9967 780.862 74.5198 780.862 Q78.918 780.862 81.2096 779.126 Q83.5244 777.39 83.5244 774.08 Q83.5244 771.024 81.3717 769.311 Q79.242 767.575 75.4226 767.575 L71.3949 767.575 L71.3949 763.733 L75.6078 763.733 Q79.0569 763.733 80.8855 762.367 Q82.7142 760.978 82.7142 758.385 Q82.7142 755.723 80.8161 754.311 Q78.9411 752.876 75.4226 752.876 Q73.5013 752.876 71.3023 753.293 Q69.1032 753.709 66.4643 754.589 L66.4643 750.422 Q69.1264 749.682 71.4412 749.311 Q73.7791 748.941 75.8393 748.941 Q81.1633 748.941 84.2652 751.372 Q87.367 753.779 87.367 757.899 Q87.367 760.77 85.7235 762.76 Q84.08 764.728 81.0476 765.492 Z" fill="#000000" fill-rule="evenodd" fill-opacity="1" /><path clip-path="url(#clip5100)" d="M 0 0 M78.5939 527.35 L66.7884 545.799 L78.5939 545.799 L78.5939 527.35 M77.367 523.276 L83.2466 523.276 L83.2466 545.799 L88.1772 545.799 L88.1772 549.688 L83.2466 549.688 L83.2466 557.836 L78.5939 557.836 L78.5939 549.688 L62.9921 549.688 L62.9921 545.174 L77.367 523.276 Z" fill="#000000" fill-rule="evenodd" fill-opacity="1" /><path clip-path="url(#clip5100)" d="M 0 0 M67.2745 296.986 L85.6309 296.986 L85.6309 300.921 L71.5569 300.921 L71.5569 309.394 Q72.5754 309.046 73.5939 308.884 Q74.6124 308.699 75.6309 308.699 Q81.418 308.699 84.7976 311.87 Q88.1772 315.042 88.1772 320.458 Q88.1772 326.037 84.705 329.139 Q81.2328 332.217 74.9134 332.217 Q72.7374 332.217 70.4689 331.847 Q68.2236 331.477 65.8162 330.736 L65.8162 326.037 Q67.8995 327.171 70.1217 327.727 Q72.3439 328.282 74.8208 328.282 Q78.8254 328.282 81.1633 326.176 Q83.5013 324.069 83.5013 320.458 Q83.5013 316.847 81.1633 314.741 Q78.8254 312.634 74.8208 312.634 Q72.9458 312.634 71.0708 313.051 Q69.2189 313.468 67.2745 314.347 L67.2745 296.986 Z" fill="#000000" fill-rule="evenodd" fill-opacity="1" /><path clip-path="url(#clip5100)" d="M 0 0 M76.6495 86.1129 Q73.5013 86.1129 71.6495 88.2656 Q69.8208 90.4184 69.8208 94.1684 Q69.8208 97.8952 71.6495 100.071 Q73.5013 102.224 76.6495 102.224 Q79.7976 102.224 81.6263 100.071 Q83.4781 97.8952 83.4781 94.1684 Q83.4781 90.4184 81.6263 88.2656 Q79.7976 86.1129 76.6495 86.1129 M85.9318 71.4602 L85.9318 75.7194 Q84.1726 74.8861 82.367 74.4463 Q80.5846 74.0064 78.8254 74.0064 Q74.1958 74.0064 71.7421 77.1314 Q69.3115 80.2564 68.9643 86.5758 Q70.33 84.5619 72.3902 83.4971 Q74.4504 82.4092 76.9272 82.4092 Q82.1355 82.4092 85.1448 85.5805 Q88.1772 88.7286 88.1772 94.1684 Q88.1772 99.4924 85.029 102.71 Q81.8809 105.928 76.6495 105.928 Q70.6541 105.928 67.4828 101.344 Q64.3116 96.7378 64.3116 88.011 Q64.3116 79.8166 68.2004 74.9555 Q72.0893 70.0713 78.6402 70.0713 Q80.3994 70.0713 82.1818 70.4185 Q83.9874 70.7657 85.9318 71.4602 Z" fill="#000000" fill-rule="evenodd" fill-opacity="1" /><path clip-path="url(#clip5102)" d="
M235.413 1219.43 L235.413 1445.72 L295.84 1445.72 L295.84 1219.43 L235.413 1219.43 L235.413 1219.43  Z
  " fill="#009af9" fill-rule="evenodd" fill-opacity="1"/>
<polyline clip-path="url(#clip5102)" style="stroke:#000000; stroke-width:4; stroke-opacity:1; fill:none" points="
  235.413,1219.43 235.413,1445.72 295.84,1445.72 295.84,1219.43 235.413,1219.43 
  "/>
<path clip-path="url(#clip5102)" d="
M295.84 1445.72 L295.84 1445.72 L356.268 1445.72 L356.268 1445.72 L295.84 1445.72 L295.84 1445.72  Z
  " fill="#009af9" fill-rule="evenodd" fill-opacity="1"/>
<polyline clip-path="url(#clip5102)" style="stroke:#000000; stroke-width:4; stroke-opacity:1; fill:none" points="
  295.84,1445.72 295.84,1445.72 356.268,1445.72 295.84,1445.72 
  "/>
<path clip-path="url(#clip5102)" d="
M356.268 1445.72 L356.268 1445.72 L416.695 1445.72 L416.695 1445.72 L356.268 1445.72 L356.268 1445.72  Z
  " fill="#009af9" fill-rule="evenodd" fill-opacity="1"/>
<polyline clip-path="url(#clip5102)" style="stroke:#000000; stroke-width:4; stroke-opacity:1; fill:none" points="
  356.268,1445.72 356.268,1445.72 416.695,1445.72 356.268,1445.72 
  "/>
<path clip-path="url(#clip5102)" d="
M416.695 993.136 L416.695 1445.72 L477.123 1445.72 L477.123 993.136 L416.695 993.136 L416.695 993.136  Z
  " fill="#009af9" fill-rule="evenodd" fill-opacity="1"/>
<polyline clip-path="url(#clip5102)" style="stroke:#000000; stroke-width:4; stroke-opacity:1; fill:none" points="
  416.695,993.136 416.695,1445.72 477.123,1445.72 477.123,993.136 416.695,993.136 
  "/>
<path clip-path="url(#clip5102)" d="
M477.123 766.846 L477.123 1445.72 L537.55 1445.72 L537.55 766.846 L477.123 766.846 L477.123 766.846  Z
  " fill="#009af9" fill-rule="evenodd" fill-opacity="1"/>
<polyline clip-path="url(#clip5102)" style="stroke:#000000; stroke-width:4; stroke-opacity:1; fill:none" points="
  477.123,766.846 477.123,1445.72 537.55,1445.72 537.55,766.846 477.123,766.846 
  "/>
<path clip-path="url(#clip5102)" d="
M537.55 993.136 L537.55 1445.72 L597.978 1445.72 L597.978 993.136 L537.55 993.136 L537.55 993.136  Z
  " fill="#009af9" fill-rule="evenodd" fill-opacity="1"/>
<polyline clip-path="url(#clip5102)" style="stroke:#000000; stroke-width:4; stroke-opacity:1; fill:none" points="
  537.55,993.136 537.55,1445.72 597.978,1445.72 597.978,993.136 537.55,993.136 
  "/>
<path clip-path="url(#clip5102)" d="
M597.978 87.9763 L597.978 1445.72 L658.405 1445.72 L658.405 87.9763 L597.978 87.9763 L597.978 87.9763  Z
  " fill="#009af9" fill-rule="evenodd" fill-opacity="1"/>
<polyline clip-path="url(#clip5102)" style="stroke:#000000; stroke-width:4; stroke-opacity:1; fill:none" points="
  597.978,87.9763 597.978,1445.72 658.405,1445.72 658.405,87.9763 597.978,87.9763 
  "/>
<path clip-path="url(#clip5102)" d="
M658.405 1445.72 L658.405 1445.72 L718.833 1445.72 L718.833 1445.72 L658.405 1445.72 L658.405 1445.72  Z
  " fill="#009af9" fill-rule="evenodd" fill-opacity="1"/>
<polyline clip-path="url(#clip5102)" style="stroke:#000000; stroke-width:4; stroke-opacity:1; fill:none" points="
  658.405,1445.72 658.405,1445.72 718.833,1445.72 658.405,1445.72 
  "/>
<path clip-path="url(#clip5102)" d="
M718.833 1219.43 L718.833 1445.72 L779.26 1445.72 L779.26 1219.43 L718.833 1219.43 L718.833 1219.43  Z
  " fill="#009af9" fill-rule="evenodd" fill-opacity="1"/>
<polyline clip-path="url(#clip5102)" style="stroke:#000000; stroke-width:4; stroke-opacity:1; fill:none" points="
  718.833,1219.43 718.833,1445.72 779.26,1445.72 779.26,1219.43 718.833,1219.43 
  "/>
<path clip-path="url(#clip5102)" d="
M779.26 1219.43 L779.26 1445.72 L839.688 1445.72 L839.688 1219.43 L779.26 1219.43 L779.26 1219.43  Z
  " fill="#009af9" fill-rule="evenodd" fill-opacity="1"/>
<polyline clip-path="url(#clip5102)" style="stroke:#000000; stroke-width:4; stroke-opacity:1; fill:none" points="
  779.26,1219.43 779.26,1445.72 839.688,1445.72 839.688,1219.43 779.26,1219.43 
  "/>
<path clip-path="url(#clip5102)" d="
M839.688 1445.72 L839.688 1445.72 L900.115 1445.72 L900.115 1445.72 L839.688 1445.72 L839.688 1445.72  Z
  " fill="#009af9" fill-rule="evenodd" fill-opacity="1"/>
<polyline clip-path="url(#clip5102)" style="stroke:#000000; stroke-width:4; stroke-opacity:1; fill:none" points="
  839.688,1445.72 839.688,1445.72 900.115,1445.72 839.688,1445.72 
  "/>
<path clip-path="url(#clip5102)" d="
M900.115 1219.43 L900.115 1445.72 L960.543 1445.72 L960.543 1219.43 L900.115 1219.43 L900.115 1219.43  Z
  " fill="#009af9" fill-rule="evenodd" fill-opacity="1"/>
<polyline clip-path="url(#clip5102)" style="stroke:#000000; stroke-width:4; stroke-opacity:1; fill:none" points="
  900.115,1219.43 900.115,1445.72 960.543,1445.72 960.543,1219.43 900.115,1219.43 
  "/>
<path clip-path="url(#clip5102)" d="
M960.543 1445.72 L960.543 1445.72 L1020.97 1445.72 L1020.97 1445.72 L960.543 1445.72 L960.543 1445.72  Z
  " fill="#009af9" fill-rule="evenodd" fill-opacity="1"/>
<polyline clip-path="url(#clip5102)" style="stroke:#000000; stroke-width:4; stroke-opacity:1; fill:none" points="
  960.543,1445.72 960.543,1445.72 1020.97,1445.72 960.543,1445.72 
  "/>
<path clip-path="url(#clip5102)" d="
M1020.97 1219.43 L1020.97 1445.72 L1081.4 1445.72 L1081.4 1219.43 L1020.97 1219.43 L1020.97 1219.43  Z
  " fill="#009af9" fill-rule="evenodd" fill-opacity="1"/>
<polyline clip-path="url(#clip5102)" style="stroke:#000000; stroke-width:4; stroke-opacity:1; fill:none" points="
  1020.97,1219.43 1020.97,1445.72 1081.4,1445.72 1081.4,1219.43 1020.97,1219.43 
  "/>
<path clip-path="url(#clip5102)" d="
M1081.4 1219.43 L1081.4 1445.72 L1141.83 1445.72 L1141.83 1219.43 L1081.4 1219.43 L1081.4 1219.43  Z
  " fill="#009af9" fill-rule="evenodd" fill-opacity="1"/>
<polyline clip-path="url(#clip5102)" style="stroke:#000000; stroke-width:4; stroke-opacity:1; fill:none" points="
  1081.4,1219.43 1081.4,1445.72 1141.83,1445.72 1141.83,1219.43 1081.4,1219.43 
  "/>
<path clip-path="url(#clip5102)" d="
M1141.83 1219.43 L1141.83 1445.72 L1202.25 1445.72 L1202.25 1219.43 L1141.83 1219.43 L1141.83 1219.43  Z
  " fill="#009af9" fill-rule="evenodd" fill-opacity="1"/>
<polyline clip-path="url(#clip5102)" style="stroke:#000000; stroke-width:4; stroke-opacity:1; fill:none" points="
  1141.83,1219.43 1141.83,1445.72 1202.25,1445.72 1202.25,1219.43 1141.83,1219.43 
  "/>
<path clip-path="url(#clip5102)" d="
M1202.25 1445.72 L1202.25 1445.72 L1262.68 1445.72 L1262.68 1445.72 L1202.25 1445.72 L1202.25 1445.72  Z
  " fill="#009af9" fill-rule="evenodd" fill-opacity="1"/>
<polyline clip-path="url(#clip5102)" style="stroke:#000000; stroke-width:4; stroke-opacity:1; fill:none" points="
  1202.25,1445.72 1202.25,1445.72 1262.68,1445.72 1202.25,1445.72 
  "/>
<path clip-path="url(#clip5102)" d="
M1262.68 1445.72 L1262.68 1445.72 L1323.11 1445.72 L1323.11 1445.72 L1262.68 1445.72 L1262.68 1445.72  Z
  " fill="#009af9" fill-rule="evenodd" fill-opacity="1"/>
<polyline clip-path="url(#clip5102)" style="stroke:#000000; stroke-width:4; stroke-opacity:1; fill:none" points="
  1262.68,1445.72 1262.68,1445.72 1323.11,1445.72 1262.68,1445.72 
  "/>
<path clip-path="url(#clip5102)" d="
M1323.11 1219.43 L1323.11 1445.72 L1383.54 1445.72 L1383.54 1219.43 L1323.11 1219.43 L1323.11 1219.43  Z
  " fill="#009af9" fill-rule="evenodd" fill-opacity="1"/>
<polyline clip-path="url(#clip5102)" style="stroke:#000000; stroke-width:4; stroke-opacity:1; fill:none" points="
  1323.11,1219.43 1323.11,1445.72 1383.54,1445.72 1383.54,1219.43 1323.11,1219.43 
  "/>
<path clip-path="url(#clip5102)" d="
M1383.54 1445.72 L1383.54 1445.72 L1443.96 1445.72 L1443.96 1445.72 L1383.54 1445.72 L1383.54 1445.72  Z
  " fill="#009af9" fill-rule="evenodd" fill-opacity="1"/>
<polyline clip-path="url(#clip5102)" style="stroke:#000000; stroke-width:4; stroke-opacity:1; fill:none" points="
  1383.54,1445.72 1383.54,1445.72 1443.96,1445.72 1383.54,1445.72 
  "/>
<path clip-path="url(#clip5102)" d="
M1443.96 1445.72 L1443.96 1445.72 L1504.39 1445.72 L1504.39 1445.72 L1443.96 1445.72 L1443.96 1445.72  Z
  " fill="#009af9" fill-rule="evenodd" fill-opacity="1"/>
<polyline clip-path="url(#clip5102)" style="stroke:#000000; stroke-width:4; stroke-opacity:1; fill:none" points="
  1443.96,1445.72 1443.96,1445.72 1504.39,1445.72 1443.96,1445.72 
  "/>
<path clip-path="url(#clip5102)" d="
M1504.39 1219.43 L1504.39 1445.72 L1564.82 1445.72 L1564.82 1219.43 L1504.39 1219.43 L1504.39 1219.43  Z
  " fill="#009af9" fill-rule="evenodd" fill-opacity="1"/>
<polyline clip-path="url(#clip5102)" style="stroke:#000000; stroke-width:4; stroke-opacity:1; fill:none" points="
  1504.39,1219.43 1504.39,1445.72 1564.82,1445.72 1564.82,1219.43 1504.39,1219.43 
  "/>
<path clip-path="url(#clip5102)" d="
M1564.82 1445.72 L1564.82 1445.72 L1625.25 1445.72 L1625.25 1445.72 L1564.82 1445.72 L1564.82 1445.72  Z
  " fill="#009af9" fill-rule="evenodd" fill-opacity="1"/>
<polyline clip-path="url(#clip5102)" style="stroke:#000000; stroke-width:4; stroke-opacity:1; fill:none" points="
  1564.82,1445.72 1564.82,1445.72 1625.25,1445.72 1564.82,1445.72 
  "/>
<path clip-path="url(#clip5102)" d="
M1625.25 1445.72 L1625.25 1445.72 L1685.67 1445.72 L1685.67 1445.72 L1625.25 1445.72 L1625.25 1445.72  Z
  " fill="#009af9" fill-rule="evenodd" fill-opacity="1"/>
<polyline clip-path="url(#clip5102)" style="stroke:#000000; stroke-width:4; stroke-opacity:1; fill:none" points="
  1625.25,1445.72 1625.25,1445.72 1685.67,1445.72 1625.25,1445.72 
  "/>
<path clip-path="url(#clip5102)" d="
M1685.67 1445.72 L1685.67 1445.72 L1746.1 1445.72 L1746.1 1445.72 L1685.67 1445.72 L1685.67 1445.72  Z
  " fill="#009af9" fill-rule="evenodd" fill-opacity="1"/>
<polyline clip-path="url(#clip5102)" style="stroke:#000000; stroke-width:4; stroke-opacity:1; fill:none" points="
  1685.67,1445.72 1685.67,1445.72 1746.1,1445.72 1685.67,1445.72 
  "/>
<path clip-path="url(#clip5102)" d="
M1746.1 1219.43 L1746.1 1445.72 L1806.53 1445.72 L1806.53 1219.43 L1746.1 1219.43 L1746.1 1219.43  Z
  " fill="#009af9" fill-rule="evenodd" fill-opacity="1"/>
<polyline clip-path="url(#clip5102)" style="stroke:#000000; stroke-width:4; stroke-opacity:1; fill:none" points="
  1746.1,1219.43 1746.1,1445.72 1806.53,1445.72 1806.53,1219.43 1746.1,1219.43 
  "/>
<path clip-path="url(#clip5102)" d="
M1806.53 1445.72 L1806.53 1445.72 L1866.96 1445.72 L1866.96 1445.72 L1806.53 1445.72 L1806.53 1445.72  Z
  " fill="#009af9" fill-rule="evenodd" fill-opacity="1"/>
<polyline clip-path="url(#clip5102)" style="stroke:#000000; stroke-width:4; stroke-opacity:1; fill:none" points="
  1806.53,1445.72 1806.53,1445.72 1866.96,1445.72 1806.53,1445.72 
  "/>
<path clip-path="url(#clip5102)" d="
M1866.96 1445.72 L1866.96 1445.72 L1927.38 1445.72 L1927.38 1445.72 L1866.96 1445.72 L1866.96 1445.72  Z
  " fill="#009af9" fill-rule="evenodd" fill-opacity="1"/>
<polyline clip-path="url(#clip5102)" style="stroke:#000000; stroke-width:4; stroke-opacity:1; fill:none" points="
  1866.96,1445.72 1866.96,1445.72 1927.38,1445.72 1866.96,1445.72 
  "/>
<path clip-path="url(#clip5102)" d="
M1927.38 1445.72 L1927.38 1445.72 L1987.81 1445.72 L1987.81 1445.72 L1927.38 1445.72 L1927.38 1445.72  Z
  " fill="#009af9" fill-rule="evenodd" fill-opacity="1"/>
<polyline clip-path="url(#clip5102)" style="stroke:#000000; stroke-width:4; stroke-opacity:1; fill:none" points="
  1927.38,1445.72 1927.38,1445.72 1987.81,1445.72 1927.38,1445.72 
  "/>
<path clip-path="url(#clip5102)" d="
M1987.81 1445.72 L1987.81 1445.72 L2048.24 1445.72 L2048.24 1445.72 L1987.81 1445.72 L1987.81 1445.72  Z
  " fill="#009af9" fill-rule="evenodd" fill-opacity="1"/>
<polyline clip-path="url(#clip5102)" style="stroke:#000000; stroke-width:4; stroke-opacity:1; fill:none" points="
  1987.81,1445.72 1987.81,1445.72 2048.24,1445.72 1987.81,1445.72 
  "/>
<path clip-path="url(#clip5102)" d="
M2048.24 1445.72 L2048.24 1445.72 L2108.67 1445.72 L2108.67 1445.72 L2048.24 1445.72 L2048.24 1445.72  Z
  " fill="#009af9" fill-rule="evenodd" fill-opacity="1"/>
<polyline clip-path="url(#clip5102)" style="stroke:#000000; stroke-width:4; stroke-opacity:1; fill:none" points="
  2048.24,1445.72 2048.24,1445.72 2108.67,1445.72 2048.24,1445.72 
  "/>
<path clip-path="url(#clip5102)" d="
M2108.67 1445.72 L2108.67 1445.72 L2169.09 1445.72 L2169.09 1445.72 L2108.67 1445.72 L2108.67 1445.72  Z
  " fill="#009af9" fill-rule="evenodd" fill-opacity="1"/>
<polyline clip-path="url(#clip5102)" style="stroke:#000000; stroke-width:4; stroke-opacity:1; fill:none" points="
  2108.67,1445.72 2108.67,1445.72 2169.09,1445.72 2108.67,1445.72 
  "/>
<path clip-path="url(#clip5102)" d="
M2169.09 993.136 L2169.09 1445.72 L2229.52 1445.72 L2229.52 993.136 L2169.09 993.136 L2169.09 993.136  Z
  " fill="#009af9" fill-rule="evenodd" fill-opacity="1"/>
<polyline clip-path="url(#clip5102)" style="stroke:#000000; stroke-width:4; stroke-opacity:1; fill:none" points="
  2169.09,993.136 2169.09,1445.72 2229.52,1445.72 2229.52,993.136 2169.09,993.136 
  "/>
<path clip-path="url(#clip5100)" d="
M1857.49 251.724 L2280.76 251.724 L2280.76 130.764 L1857.49 130.764  Z
  " fill="#ffffff" fill-rule="evenodd" fill-opacity="1"/>
<polyline clip-path="url(#clip5100)" style="stroke:#000000; stroke-width:4; stroke-opacity:1; fill:none" points="
  1857.49,251.724 2280.76,251.724 2280.76,130.764 1857.49,130.764 1857.49,251.724 
  "/>
<path clip-path="url(#clip5100)" d="
M1881.49 215.436 L2025.49 215.436 L2025.49 167.052 L1881.49 167.052 L1881.49 215.436  Z
  " fill="#009af9" fill-rule="evenodd" fill-opacity="1"/>
<polyline clip-path="url(#clip5100)" style="stroke:#000000; stroke-width:4; stroke-opacity:1; fill:none" points="
  1881.49,215.436 2025.49,215.436 2025.49,167.052 1881.49,167.052 1881.49,215.436 
  "/>
<path clip-path="url(#clip5100)" d="M 0 0 M2049.49 172.506 L2059.31 172.506 L2059.31 175.816 L2053.75 175.816 L2053.75 211.464 L2059.31 211.464 L2059.31 214.774 L2049.49 214.774 L2049.49 172.506 Z" fill="#000000" fill-rule="evenodd" fill-opacity="1" /><path clip-path="url(#clip5100)" d="M 0 0 M2067.8 173.964 L2067.8 186.811 L2063.87 186.811 L2063.87 173.964 L2067.8 173.964 M2076.55 173.964 L2076.55 186.811 L2072.62 186.811 L2072.62 173.964 L2076.55 173.964 Z" fill="#000000" fill-rule="evenodd" fill-opacity="1" /><path clip-path="url(#clip5100)" d="M 0 0 M2092.8 195.492 Q2087.64 195.492 2085.65 196.672 Q2083.66 197.853 2083.66 200.7 Q2083.66 202.969 2085.14 204.311 Q2086.65 205.631 2089.22 205.631 Q2092.76 205.631 2094.89 203.131 Q2097.04 200.607 2097.04 196.441 L2097.04 195.492 L2092.8 195.492 M2101.3 193.733 L2101.3 208.524 L2097.04 208.524 L2097.04 204.589 Q2095.58 206.95 2093.4 208.084 Q2091.23 209.195 2088.08 209.195 Q2084.1 209.195 2081.74 206.973 Q2079.4 204.728 2079.4 200.978 Q2079.4 196.603 2082.32 194.381 Q2085.26 192.158 2091.07 192.158 L2097.04 192.158 L2097.04 191.742 Q2097.04 188.802 2095.09 187.205 Q2093.17 185.584 2089.68 185.584 Q2087.46 185.584 2085.35 186.117 Q2083.24 186.649 2081.3 187.714 L2081.3 183.779 Q2083.64 182.876 2085.84 182.436 Q2088.03 181.973 2090.12 181.973 Q2095.74 181.973 2098.52 184.89 Q2101.3 187.807 2101.3 193.733 Z" fill="#000000" fill-rule="evenodd" fill-opacity="1" /><path clip-path="url(#clip5100)" d="M 0 0 M2124.42 183.594 L2124.42 187.575 Q2122.62 186.58 2120.79 186.094 Q2118.98 185.584 2117.13 185.584 Q2112.99 185.584 2110.7 188.223 Q2108.4 190.839 2108.4 195.584 Q2108.4 200.33 2110.7 202.969 Q2112.99 205.584 2117.13 205.584 Q2118.98 205.584 2120.79 205.098 Q2122.62 204.589 2124.42 203.594 L2124.42 207.529 Q2122.64 208.362 2120.72 208.779 Q2118.82 209.195 2116.67 209.195 Q2110.81 209.195 2107.36 205.515 Q2103.91 201.834 2103.91 195.584 Q2103.91 189.242 2107.39 185.608 Q2110.88 181.973 2116.95 181.973 Q2118.91 181.973 2120.79 182.39 Q2122.66 182.783 2124.42 183.594 Z" fill="#000000" fill-rule="evenodd" fill-opacity="1" /><path clip-path="url(#clip5100)" d="M 0 0 M2133.1 175.237 L2133.1 182.598 L2141.88 182.598 L2141.88 185.908 L2133.1 185.908 L2133.1 199.982 Q2133.1 203.154 2133.96 204.057 Q2134.84 204.959 2137.5 204.959 L2141.88 204.959 L2141.88 208.524 L2137.5 208.524 Q2132.57 208.524 2130.7 206.695 Q2128.82 204.844 2128.82 199.982 L2128.82 185.908 L2125.7 185.908 L2125.7 182.598 L2128.82 182.598 L2128.82 175.237 L2133.1 175.237 Z" fill="#000000" fill-rule="evenodd" fill-opacity="1" /><path clip-path="url(#clip5100)" d="M 0 0 M2145.9 198.293 L2145.9 182.598 L2150.16 182.598 L2150.16 198.131 Q2150.16 201.811 2151.6 203.663 Q2153.03 205.492 2155.9 205.492 Q2159.35 205.492 2161.34 203.293 Q2163.36 201.094 2163.36 197.297 L2163.36 182.598 L2167.62 182.598 L2167.62 208.524 L2163.36 208.524 L2163.36 204.543 Q2161.81 206.904 2159.75 208.061 Q2157.71 209.195 2155 209.195 Q2150.53 209.195 2148.22 206.418 Q2145.9 203.64 2145.9 198.293 M2156.62 181.973 L2156.62 181.973 Z" fill="#000000" fill-rule="evenodd" fill-opacity="1" /><path clip-path="url(#clip5100)" d="M 0 0 M2183.87 195.492 Q2178.71 195.492 2176.71 196.672 Q2174.72 197.853 2174.72 200.7 Q2174.72 202.969 2176.21 204.311 Q2177.71 205.631 2180.28 205.631 Q2183.82 205.631 2185.95 203.131 Q2188.1 200.607 2188.1 196.441 L2188.1 195.492 L2183.87 195.492 M2192.36 193.733 L2192.36 208.524 L2188.1 208.524 L2188.1 204.589 Q2186.65 206.95 2184.47 208.084 Q2182.29 209.195 2179.15 209.195 Q2175.16 209.195 2172.8 206.973 Q2170.46 204.728 2170.46 200.978 Q2170.46 196.603 2173.38 194.381 Q2176.32 192.158 2182.13 192.158 L2188.1 192.158 L2188.1 191.742 Q2188.1 188.802 2186.16 187.205 Q2184.24 185.584 2180.74 185.584 Q2178.52 185.584 2176.41 186.117 Q2174.31 186.649 2172.36 187.714 L2172.36 183.779 Q2174.7 182.876 2176.9 182.436 Q2179.1 181.973 2181.18 181.973 Q2186.81 181.973 2189.58 184.89 Q2192.36 187.807 2192.36 193.733 Z" fill="#000000" fill-rule="evenodd" fill-opacity="1" /><path clip-path="url(#clip5100)" d="M 0 0 M2196.83 172.506 L2201.09 172.506 L2201.09 208.524 L2196.83 208.524 L2196.83 172.506 Z" fill="#000000" fill-rule="evenodd" fill-opacity="1" /><path clip-path="url(#clip5100)" d="M 0 0 M2209.58 173.964 L2209.58 186.811 L2205.65 186.811 L2205.65 173.964 L2209.58 173.964 M2218.33 173.964 L2218.33 186.811 L2214.4 186.811 L2214.4 173.964 L2218.33 173.964 Z" fill="#000000" fill-rule="evenodd" fill-opacity="1" /><path clip-path="url(#clip5100)" d="M 0 0 M2232.76 172.506 L2232.76 214.774 L2222.94 214.774 L2222.94 211.464 L2228.47 211.464 L2228.47 175.816 L2222.94 175.816 L2222.94 172.506 L2232.76 172.506 Z" fill="#000000" fill-rule="evenodd" fill-opacity="1" /></svg>
